<?xml version="1.0" standalone="no"?>
<!DOCTYPE svg PUBLIC "-//W3C//DTD SVG 1.1//EN" "http://www.w3.org/Graphics/SVG/1.1/DTD/svg11.dtd" >
<svg xmlns="http://www.w3.org/2000/svg">
<metadata></metadata>
<defs>
<font id="motion_pictureregular" horiz-adv-x="628" >
<font-face units-per-em="2048" ascent="1536" descent="-512" />
<missing-glyph horiz-adv-x="362" />
<glyph unicode="&#xfb01;" horiz-adv-x="782" d="M-117 -162q238 810 328 1104q115 382 418 356q146 -12 215 -108q52 -72 32 -148q-19 -71 -90 -94q-12 -4 -26 -6q-78 -12 -116 50t-8 128t116 64q-45 57 -123 57q-67 0 -123 -59t-86 -154q-23 -75 -121 -416l168 117q-14 -100 15 -144t81 -42l74 237h184 q-122 -399 -155 -508q-16 -49 -17.5 -77t5 -36t20.5 -12q21 -7 56 17.5t58 73.5h29q-47 -118 -119 -175t-139 -57q-23 0 -42 6.5t-35.5 24.5t-24 46.5t-3 77t24.5 111.5l64 203q-103 -84 -181 -69t-90 120l-198 -688h-191z" />
<glyph unicode="&#xfb02;" horiz-adv-x="782" d="M-117 -162q238 810 328 1104q33 109 75 181.5t93.5 109.5t103 51t119.5 14q100 0 113 -69q11 -61 -44 -132q-59 -77 -142 -91q-43 -8 -83 6q30 7 70.5 61.5t55.5 102.5t-3 63q-24 8 -45.5 -5t-40.5 -47.5t-32.5 -69.5t-30.5 -89q-23 -75 -121 -416l168 117 q-14 -99 14 -142.5t80 -43.5l213 708h187q-258 -870 -291 -979q-16 -49 -18.5 -77t3.5 -36.5t19 -11.5q24 -7 57.5 17.5t56.5 73.5h33q-45 -116 -118.5 -174t-137.5 -58q-32 0 -55.5 11.5t-40.5 39t-15.5 82.5t25.5 133l60 201q-101 -81 -178 -65.5t-89 118.5l-198 -688 h-191z" />
<glyph horiz-adv-x="0" />
<glyph horiz-adv-x="682" />
<glyph unicode=" "  horiz-adv-x="362" />
<glyph unicode="&#x09;" horiz-adv-x="362" />
<glyph unicode="&#xa0;" horiz-adv-x="362" />
<glyph unicode="!" horiz-adv-x="284" d="M0 96q0 43 27.5 71t68.5 28q40 0 69.5 -28.5t29.5 -70.5q0 -38 -29.5 -67t-69.5 -29q-41 0 -68.5 28.5t-27.5 67.5zM135 432l234 844h204l-325 -844h-113z" />
<glyph unicode="&#x22;" horiz-adv-x="430" d="M123 668l94 321h166l-193 -321h-67zM322 668l94 321h166l-193 -321h-67z" />
<glyph unicode="#" horiz-adv-x="739" d="M96 211v72h90l58 186h-68v72h90l43 139h82l-43 -139h96l43 139h82l-43 -139h72v-72h-94l-58 -186h72v-72h-94l-39 -125h-82l39 125h-96l-39 -125h-82l39 125h-68zM268 283h97l57 186h-96z" />
<glyph unicode="$" horiz-adv-x="1153" d="M8.5 348q14.5 105 65 190t139.5 140t199 55q90 0 153 -47l41 137q-100 122 -111.5 260.5t71 248.5t239.5 147l26 86h82l-22 -74q36 4 57 4q6 0 18.5 -1t18.5 -1l23 72h82l-27 -86q68 -22 115 -69.5t65.5 -103.5t12.5 -116.5t-36 -109.5t-88.5 -81t-136.5 -32 q-45 0 -82 16l-26 -84q96 -93 147 -208t54 -226.5t-33 -221t-104 -195.5t-169 -145t-219 -73l-20 -68h-82l18 64q-21 0 -67 4q-16 4 -25 4l-20 -72h-82l26 91q-117 35 -192.5 116t-100 177.5t-10 201.5zM125 196.5q9 -56.5 32 -108t69 -94t108 -64.5l117 379h-2q0 2 4 6 l16 54q4 59 -44.5 100t-113.5 35q-48 -2 -87.5 -29.5t-62 -71t-34 -97t-2.5 -110zM412 -88q1 0 3.5 -1t4.5 -1q43 -6 86 0l237 786l-36 33l-39 31l-43 -148q38 -74 13.5 -161t-99.5 -123zM594 -70q72 28 131.5 85t95.5 132t50.5 157.5t-2.5 167.5t-64 155zM693 1277.5 q-22 -69.5 5 -149.5l78 256q-61 -37 -83 -106.5zM752 1032q23 -35 71 -76l25 80q-22 34 -22 72.5t22 67.5q27 -9 39 -11l76 250q-11 0 -15 2q-29 4 -80 0zM967 1159q67 7 104.5 49.5t28.5 95t-64 85.5z" />
<glyph unicode="%" horiz-adv-x="968" d="M0 0l723 993q-89 -42 -176 4q3 -72 -41 -172q-62 -135 -162 -221t-197 -86q-87 0 -106.5 87t39.5 220q63 135 159 219t197 84q56 0 86 -41q18 -16 41.5 -28t58.5 -20.5t79.5 3t89.5 45.5l36 50h101l-826 -1137h-102zM215 825q-65 -213 6 -213q40 0 79 57.5t69 155.5 q31 92 29 151.5t-40 59.5q-37 0 -75 -57.5t-68 -153.5zM395 87q-20 87 39 220q63 135 159.5 219t197.5 84q85 0 106 -85.5t-37 -217.5q-62 -135 -161.5 -221t-196.5 -86q-87 0 -107 87zM569 307q-65 -213 6 -213q40 0 79 57.5t69 155.5q31 92 29.5 151.5t-39.5 59.5 q-37 0 -75.5 -58t-68.5 -153z" />
<glyph unicode="&#x26;" horiz-adv-x="933" d="M22 367q29 151 137 251q100 92 236 103q-101 52 -112 161q-12 107 66 205q93 117 256 144q110 19 235 -10q52 -12 91.5 -36t60.5 -55t31.5 -67.5t5.5 -73t-19 -71.5t-41.5 -64.5t-61 -50.5t-79 -30t-95.5 -3q-37 4 -65.5 20t-42.5 35t-22.5 37t-10.5 30l-2 13 q88 -27 169 36q64 50 77 117q15 74 -50 106q-20 10 -47 14q-51 8 -102.5 -15.5t-89.5 -67t-58.5 -100.5t-17.5 -112.5t41.5 -106.5t110.5 -80l-2 -16q-175 0 -289 -135q-89 -105 -102 -239q-12 -125 51 -188q42 -42 108 -42q55 0 102 35.5t80.5 96.5t56 120.5t40.5 128.5 q-16 5 -60 19t-65 18.5t-55.5 8t-62.5 -5.5t-54 -30q60 72 122 111.5t114.5 47t104 1.5t97 -17t85.5 -16t77 10.5t65 57.5q-39 -73 -81 -121.5t-80 -69t-78 -28t-76 0.5q-15 -63 -34 -120t-54 -122t-78 -111.5t-107.5 -77.5t-140.5 -31q-171 0 -248 126q-66 109 -37 259z " />
<glyph unicode="'" horiz-adv-x="204" d="M143 668l95 321h165l-192 -321h-68z" />
<glyph unicode="(" horiz-adv-x="618" d="M182.5 381q3.5 85 41 184.5t111.5 188t209.5 178t321.5 160.5l15 -35q-124 -66 -220.5 -151.5t-166 -196.5t-104 -240.5t-31 -287t48.5 -333.5l-33 -24q-9 11 -22.5 29.5t-48.5 79t-60.5 122t-45 151.5t-16 175z" />
<glyph unicode=")" horiz-adv-x="710" d="M-158 -152q124 66 220.5 151.5t166 196.5t104 240.5t31 287t-48.5 333.5l33 24q9 -11 22.5 -29.5t48.5 -79t60.5 -122t45 -151.5t16 -174.5t-41 -184t-111.5 -188t-209.5 -178t-321.5 -160.5z" />
<glyph unicode="*" horiz-adv-x="671" d="M104 238l138 141h-136v72h164l-67 153h88l53 -121l119 121h100l-151 -153h153v-72h-174l64 -141h-88l-52 112l-110 -112h-101z" />
<glyph unicode="+" horiz-adv-x="673" d="M106 379v72h203l51 192h80l-51 -192h176v-72h-196l-52 -195h-79l51 195h-183z" />
<glyph unicode="," horiz-adv-x="282" d="M-35 -104l58 139q-23 26 -23 61q0 43 27.5 71t68.5 28t71.5 -28.5t27.5 -70.5q-3 -35 -27.5 -61.5t-77 -68.5t-92.5 -89z" />
<glyph unicode="-" horiz-adv-x="444" d="M106 379v72h275v-72h-275z" />
<glyph unicode="." horiz-adv-x="284" d="M0 96q0 43 27.5 71t68.5 28q40 0 69.5 -28.5t29.5 -70.5q0 -38 -29.5 -67t-69.5 -29q-41 0 -68.5 28.5t-27.5 67.5z" />
<glyph unicode="/" horiz-adv-x="761" d="M0 0l694 1137h101l-693 -1137h-102z" />
<glyph unicode="0" horiz-adv-x="899" d="M0 268.5q-2 125.5 57 292.5q93 251 260.5 406t354.5 155q101 0 162 -72t64.5 -197t-56.5 -292q-94 -249 -262.5 -407t-350.5 -158q-105 0 -166 73.5t-63 199zM202.5 226q14.5 -130 110.5 -130q101 0 190 126.5t148 338.5q39 139 47 241t-21 162t-97 60q-97 0 -185 -126.5 t-147 -336.5q-60 -205 -45.5 -335z" />
<glyph unicode="1" horiz-adv-x="507" d="M0 0l231 780h-55l162 357h184l-336 -1137h-186z" />
<glyph unicode="2" horiz-adv-x="948" d="M0 10q227 85 439 326q173 197 258 403q79 191 32 276q-21 37 -67 46q-71 14 -128.5 -2t-92 -53.5t-57.5 -87t-28 -105t-1 -105.5t20 -90t39 -57q-13 -31 -44.5 -53.5t-68.5 -29t-75.5 20t-59.5 87.5q-13 38 -14.5 83.5t8 92.5t31 95t52 91t74 79.5t93.5 62.5t113.5 39 t131.5 8q248 -17 290 -176q38 -141 -93 -350q-124 -199 -341 -368q-97 -74 -198 -130q174 57 215 55q26 -3 60.5 -8.5t50 -7t37.5 0t37.5 11.5t36 29t45.5 51q-39 -94 -83 -154.5t-88 -85.5t-87 -31.5t-89.5 5.5t-85.5 26.5t-85.5 30.5t-79.5 20q-97 -45 -193 -63z" />
<glyph unicode="3" horiz-adv-x="931" d="M2 330q5 59 31.5 113t72.5 89q86 63 156.5 50t115 -67.5t38.5 -108.5q-101 43 -180 -26q-63 -54 -74 -139q-11 -93 51 -142q45 -36 121 -36q107 0 186 114q67 98 73 214t-57 158q-27 18 -65 18l25 37q92 2 173 104q74 93 87 197q14 110 -57 146q-17 9 -40 12 q-51 7 -98.5 -19t-75.5 -70.5t-41 -93.5t1.5 -93t54.5 -64q-15 -40 -72.5 -56t-117.5 9t-77 90q-28 107 22 196.5t158 137t244 37.5q84 -6 146 -31.5t96 -62.5t48.5 -83.5t8 -95.5t-29 -97.5t-59 -89t-87.5 -71t-108 -43.5q50 -29 80 -74.5t34 -98t-9 -108t-51.5 -106.5 t-91.5 -91.5t-131.5 -64.5t-168.5 -24q-86 0 -154 30t-107 77.5t-57.5 107.5t-13.5 119z" />
<glyph unicode="4" horiz-adv-x="790" d="M0 334q19 57 37.5 108t45 116.5t54.5 121t63 117t74 109.5t84 93.5t96.5 75t107 47t120.5 16t133 -23.5l-205 -690h58v-90h-84l-99 -334h-184l98 334h-399zM227 424h199l195 668q-55 -27 -106 -81t-87.5 -112.5t-74 -144t-61 -148t-54.5 -150.5q-7 -22 -11 -32z" />
<glyph unicode="5" horiz-adv-x="864" d="M6.5 211q-10.5 60 0.5 119t40.5 113t73.5 89q59 47 115.5 50.5t92 -24.5t54.5 -70.5t10 -81.5q-87 43 -167 -26q-65 -55 -83 -142q-19 -94 36 -143q38 -32 104 -32q118 0 197 124q69 111 71 251t-68 204q-40 38 -100 38h-190l161 291h62q-63 47 -101 119l183 100 q40 -69 101 -102t120 -30t110.5 23t81.5 52q-77 -124 -184.5 -177.5t-210.5 -29.5l-110 -203q200 -4 289 -131q73 -104 44 -245q-29 -143 -145 -240q-131 -111 -320 -111q-79 0 -138 30t-89 77.5t-40.5 107.5z" />
<glyph unicode="6" horiz-adv-x="864" d="M90 538q50 219 186 383q158 192 364 214l34 2q55 3 102.5 -14t78 -49.5t44 -74t0.5 -92t-53 -98.5q-58 -67 -150 -61q-75 5 -113 52q-40 48 -3 105q87 -20 141 34q40 38 31 81q-19 47 -82 51q-61 0 -127.5 -67t-121 -169t-97.5 -225q88 62 213 56q138 -8 194 -126 q52 -106 15 -245q-38 -143 -146 -227q-108 -83 -250 -72q-177 13 -245 174q-64 151 -15 368zM250.5 196.5q4.5 -67.5 32 -107.5t77.5 -40q86 0 145 130.5t44 261t-109 130.5q-81 0 -143 -45q-27 -94 -39 -178t-7.5 -151.5z" />
<glyph unicode="7" horiz-adv-x="749" d="M-53 0l200 315h-77v76h127l333 522l144 48q-71 -12 -136.5 -3.5t-131 18t-119 16t-100 -9.5t-74.5 -58q49 92 110.5 144.5t124.5 65t128 8t130 -21t122.5 -29t113 -8t94.5 34.5q-59 -70 -127 -110l-397 -617h71v-76h-121l-202 -315h-213z" />
<glyph unicode="8" horiz-adv-x="796" d="M-33.5 203q-6.5 88 20.5 180t98.5 166.5t160.5 97.5q-55 30 -75 90.5t0.5 127.5t66.5 129t130 102.5t183 40.5q69 0 123.5 -20t87.5 -53t51.5 -76.5t19.5 -90t-14 -93.5t-44 -86.5t-75 -70t-102 -43.5q39 -22 64.5 -56.5t34 -75.5t6 -86.5t-20.5 -91.5t-45 -89.5 t-69.5 -81.5t-92 -66t-112.5 -44.5t-132 -16.5q-119 0 -188.5 59.5t-76 147.5zM166 242q-20 -132 39 -168q17 -11 41 -11q79 0 153 123q71 115 89 247q19 131 -37 163q-14 8 -33 8q-82 0 -160 -120q-73 -113 -92 -242zM341 785q-2 -103 66 -130q19 -8 44 -8q87 0 143 101 q49 90 43 192q-7 98 -65 121q-14 6 -31 6q-77 0 -139 -95q-58 -89 -61 -187z" />
<glyph unicode="9" horiz-adv-x="880" d="M-35 176q-14 57 8 125q20 56 65 84.5t91.5 26.5t86.5 -30.5t52 -76.5q-66 -9 -103 -78q-34 -63 -15 -116q17 -48 75 -48q93 0 195 144.5t170 343.5q-102 -118 -275 -105q-138 9 -186 123q-45 106 3 247q50 146 170 236q115 85 257 85q191 0 262 -160q65 -145 12 -366 q-52 -218 -190 -388q-157 -194 -352 -225q-35 -6 -70 -6q-57 0 -111.5 22.5t-92.5 63.5t-52 98zM320 721q-13 -133 48 -169q18 -11 42 -11q128 0 206 100q24 88 33 165.5t3.5 139t-33 97.5t-74.5 36q-76 0 -145 -116q-67 -112 -80 -242z" />
<glyph unicode=":" horiz-adv-x="370" d="M0 96q0 43 27.5 71t68.5 28q40 0 69.5 -28.5t29.5 -70.5q0 -38 -29.5 -67t-69.5 -29q-41 0 -68.5 28.5t-27.5 67.5zM143 602q0 42 27.5 70t69.5 28q40 0 69 -28t29 -70q0 -38 -29 -67t-69 -29q-41 0 -69 28.5t-28 67.5z" />
<glyph unicode=";" horiz-adv-x="370" d="M-35 -104l58 139q-23 26 -23 61q0 43 27.5 71t68.5 28t71.5 -28.5t27.5 -70.5q-3 -35 -27.5 -61.5t-77 -68.5t-92.5 -89zM143 602q0 42 27.5 70t69.5 28q40 0 69 -28t29 -70q0 -38 -29 -67t-69 -29q-41 0 -69 28.5t-28 67.5z" />
<glyph unicode="&#x3c;" horiz-adv-x="651" d="M145 379l13 47l379 203l14 -45l-266 -228l116 -233l-28 -12z" />
<glyph unicode="=" horiz-adv-x="749" d="M106 270v72h422v-72h-422zM168 434v72h422v-72h-422z" />
<glyph unicode="&#x3e;" horiz-adv-x="651" d="M127 158l266 227l-117 233l29 13l227 -269l-12 -47l-379 -202z" />
<glyph unicode="?" horiz-adv-x="880" d="M102 96q0 43 28 71t69 28q40 0 69 -28.5t29 -70.5q0 -38 -29 -67t-69 -29q-41 0 -69 28.5t-28 67.5zM258 350q18 68 64 125.5t107.5 101.5t125.5 85.5t130.5 97.5t109.5 117q57 80 65.5 164t-35 143t-127.5 69q-103 16 -142 -54q-33 -58 -3 -133q31 -78 106 -107 q28 -11 60 -13q-13 -45 -59.5 -80t-106 -41.5t-121.5 25.5q-55 31 -86.5 77t-36.5 95t13.5 99t56.5 90.5t100 68.5t137 35q124 10 219 -16t145 -77.5t67.5 -117t-6.5 -139t-83 -138.5q-62 -68 -147.5 -130t-160 -104t-143 -81.5t-114.5 -79.5t-57 -82h-78z" />
<glyph unicode="@" horiz-adv-x="1044" d="M65.5 185q-4.5 100 30.5 214q40 150 135 278t217 201.5t240 73.5q84 0 148 -28t102.5 -78.5t56.5 -119.5t13 -152t-31 -175q-6 -22 -20.5 -60t-45.5 -95.5t-68 -107t-91 -87.5t-111 -43h-16q-43 0 -73.5 25t-33.5 84q-46 -47 -103 -78t-110 -31q-32 0 -54.5 16t-34 50.5 t-10 83.5t21 119t55.5 153q37 85 93 154t119.5 112.5t131 68t132 24t118.5 -24.5q-115 -381 -148 -490q-16 -49 -18.5 -77t3.5 -36.5t19 -11.5q29 -8 62.5 20.5t59.5 75.5t44.5 87.5t26.5 68.5q70 241 2 376.5t-256 135.5q-158 0 -314.5 -152.5t-210.5 -359.5 q-32 -102 -29.5 -192t30.5 -157.5t92.5 -106.5t156.5 -39q80 0 150 33l18 -43q-93 -44 -186 -44q-99 0 -170.5 43t-105 117.5t-38 174.5zM411 288q-19 -121 27 -126q32 0 86 43q4 20 19 67l121 404q-12 4 -25 4q-60 0 -132 -132q-71 -129 -96 -260z" />
<glyph unicode="A" horiz-adv-x="1038" d="M30 565q64 270 234 505q191 264 439 366q132 54 269 53h32q230 -11 300 -128q26 -43 26 -90q0 -43 -22 -89q-37 -82 -117 -122q-45 -22 -93 -22t-82 12.5t-45.5 24t-24.5 29.5q47 0 85.5 31.5t52.5 76.5q10 34 10 68q0 11 -2 23q-4 46 -46.5 79t-113.5 35h-14 q-175 0 -342 -218q-148 -193 -237 -478q-67 -212 -67 -365q0 -37 4 -71q24 -156 123 -160q168 0 351 465l114 395h240q-144 -500 -191 -647q-33 -103 -33 -158.5t33 -64.5q3 -1 6 -1q23 0 61 45q43 51 81 128h43q-120 -291 -305 -291q-34 0 -61 10.5t-50 34.5q-24 25 -34 71 q-6 27 -6 61q0 24 3 50q-159 -252 -352 -252q-192 0 -262 170q-36 86 -36 199q0 102 29 225z" />
<glyph unicode="B" horiz-adv-x="1433" d="M10 759q38 218 187 401q182 224 454 297q118 32 246 32q362 0 521 -177q97 -109 98 -255q0 -23 -3 -48q-16 -156 -122 -276q-96 -110 -228 -139q78 -54 125 -126q46 -72 59 -148q6 -36 7 -74q0 -40 -8 -80q-14 -78 -51 -144.5t-97 -118t-133 -78.5q-61 -22 -134 -22 q-15 1 -31 1q-92 6 -185 49q-65 30 -115 77q-119 -106 -260 -106q-56 0 -103 14t-83 46q-36 31 -46 82q-3 17 -4 36q0 39 13 88q21 81 105 109q34 11 67 12q39 -1 75 -17q64 -28 63 -86v-5q-1 -36 -30 -78q-27 24 -53 24q-20 0 -40 -15q-33 -25 -33 -65q0 -48 53 -60 q13 -3 30 -3q59 0 111 74t94.5 192t86 261.5t96 287.5t113.5 264t149 196.5t192 80.5q-124 141 -362 141q-288 0 -459 -220q-127 -164 -155 -396q-7 -57 -6 -108q0 -123 38 -214q48 -113 135 -113q43 0 64 40q9 18 9 35q0 22 -16 41q-30 36 -104 36q0 70 69 104q35 17 70 17 l68 -16q69 -33 69 -124q0 -94 -79 -156.5t-183 -62.5q-203 0 -295 150q-59 97 -59 228q0 54 10 115zM655 -10q42 -39 95 -62q40 -17 81 -16q20 0 39 3q61 12 111 59t92.5 109.5t62.5 136.5q22 75 24 142v10q0 60 -28 114q-30 58 -88 85q-56 25 -104 31q-69 -212 -134 -361.5 t-151 -250.5zM969 686q59 -29 116 -29q66 0 119 59q52 58 76 142q15 55 16 118q0 32 -4 68q-12 102 -67 181q-38 -27 -72 -77t-68 -132t-56.5 -148.5t-59.5 -181.5z" />
<glyph unicode="C" horiz-adv-x="948" d="M36 20q-36 90 -36 205q0 122 40 273q76 289 256 546q189 271 415 384q134 67 266 67q170 0 246 -108q42 -60 42 -132q0 -30 -7 -62q-24 -108 -118 -168q-73 -46 -168 -46q-20 0 -42 2q-44 4 -79 21.5t-53.5 39.5t-30.5 44t-15 36l-4 15q35 -11 68 -11q64 0 122 41 q64 45 76 107q2 12 2 22q0 49 -50 72q-33 16 -85 16q-182 0 -346 -233q-146 -208 -225 -516q-54 -209 -54 -373q0 -66 9 -124q29 -193 146 -215q14 -3 29 -3q58 0 121 25.5t117 66t106 89.5t92 98.5t70.5 90t47.5 66.5l16 25h53q-6 -12 -17.5 -32t-50 -77.5t-80.5 -110.5 t-108 -117t-133.5 -110.5t-155 -78t-174.5 -31.5q-231 0 -308 196z" />
<glyph unicode="D" horiz-adv-x="1617" d="M11 758q37 218 186 402q183 224 458 297q118 32 246 32q204 0 365 -66q253 -108 336 -372q36 -115 36 -244q0 -136 -40 -286q-71 -266 -235 -462q-171 -204 -372 -242q-42 -8 -84 -8q-97 0 -192 44q-72 38 -115 79q-118 -108 -262 -108q-56 0 -101.5 14t-82 45.5 t-46.5 82.5q-4 19 -3 41q0 37 10 83q24 81 109 109q35 12 68 12q39 0 76 -17q62 -29 62 -86v-9q-3 -35 -29 -74q-27 24 -53 24q-20 0 -40 -15q-34 -26 -35 -67q0 -46 50 -58q13 -3 29 -3q47 0 89.5 47t77.5 126.5t69.5 182t70.5 216t75.5 226.5t88.5 214.5t105.5 179.5 t131.5 122q70 42 150 42h11l-21 18q-164 123 -362 123q-288 0 -460 -220q-128 -164 -157 -396q-7 -57 -6 -108q0 -123 38 -214q47 -113 134 -113q43 0 64 40q9 18 9 34q0 22 -16 42q-31 36 -106 36q0 70 69 104q35 17 70 17l68 -16q69 -33 69 -124q0 -95 -77.5 -157 t-184.5 -62q-201 0 -292 149q-59 97 -59 228q0 54 10 115zM655 -10q38 -35 93 -62q69 -36 137 -36q102 0 203 81q143 116 233 351q84 218 84 435q0 34 -2 67q-15 267 -156 411q-65 -33 -122 -140t-105 -252.5t-97.5 -298t-119 -307t-148.5 -249.5z" />
<glyph unicode="E" horiz-adv-x="993" d="M1 265q12 174 119 301q120 144 310 159q-115 59 -126 198q-1 16 -1 32q0 123 81 251q100 158 271 235q122 55 258 55q60 0 123 -11q100 -16 167.5 -63.5t92.5 -106.5q19 -44 19 -90q-1 -16 -3 -32q-8 -63 -48 -113q-40 -52 -116 -80q-58 -22 -128 -21q-22 0 -45 2 q-45 4 -81 21.5t-55 39.5t-31.5 44t-15.5 36l-4 15q38 -12 73 -11q63 0 116 36q64 43 70 107q1 7 1 14q0 61 -66 97q-29 15 -69 23q-26 6 -52 6q-66 0 -127 -38q-85 -52 -127 -145q-43 -93 -49 -196q-1 -10 0 -19q0 -93 57 -179q63 -94 186 -138l-4 -20q-262 0 -417 -161 q-112 -118 -129 -275q-3 -27 -3 -52q0 -107 56 -181q63 -85 175 -85q59 0 123 25.5t118 66t106 89.5t92 98.5t70.5 90t46.5 66.5l16 25h57q-6 -12 -17.5 -32t-50 -77.5t-81 -110.5t-108.5 -117t-134 -110.5t-156 -78t-176 -31.5q-202 0 -307 145q-78 108 -78 256q0 19 1 40z " />
<glyph unicode="F" horiz-adv-x="1140" d="M10 781q38 218 189 401q108 131 252 213q111 61 235 85q91 17 176 17q31 -1 61 -3q113 -8 228 -29t219 -43t196 -30q26 -2 50 -2q66 0 124 16q82 22 138 83q-50 -82 -109 -137.5t-117.5 -84.5t-128.5 -39q-50 -7 -96 -7q-19 0 -37 1q-63 4 -139 19q-38 -15 -74 -56.5 t-62.5 -92t-58.5 -132t-53.5 -146.5t-55 -168.5t-56.5 -168.5h221l-20 -67h-226q-37 -101 -73 -180.5t-86 -158.5t-103.5 -131t-123.5 -84t-148 -32q-56 0 -102.5 14t-82.5 46q-35 31 -45 82q-3 18 -4 39q0 38 11 85q23 81 107 109q34 11 67 12q39 0 75 -17q64 -28 64 -87 v-5q-2 -36 -29 -77q-27 24 -53 24q-20 0 -40 -15q-34 -26 -34 -67q0 -47 51 -58q13 -3 29 -3q58 0 109.5 72t93.5 187.5t85 256t94.5 283t111 262.5t145 201t186.5 92q-38 9 -110 27.5t-114 28.5t-105.5 22t-109.5 13h-16q-38 1 -82 -3q-53 -4 -99.5 -22.5t-88.5 -49.5 q-72 -52 -124.5 -129t-78.5 -161q-27 -84 -37 -172q-5 -44 -5 -86q-1 -40 5 -80q10 -78 32.5 -141t60.5 -99.5t84 -36.5q43 0 64 40q11 19 11 37q0 21 -15 39q-29 37 -103 37q0 70 68 104q34 17 69 17l67 -16q68 -33 68 -125q0 -93 -77.5 -155t-180.5 -62q-204 0 -296 151 q-59 96 -59 226q0 55 11 117z" />
<glyph unicode="G" horiz-adv-x="1069" d="M30 335q-30 65 -30 147q0 96 42 215q75 216 248 398q201 212 440 273q83 21 165 21q153 0 226 -104q42 -61 42 -134q0 -28 -6 -58q-22 -108 -115 -166q-70 -44 -164 -44q-20 0 -40 2q-45 4 -79.5 20.5t-51.5 37.5t-27 41t-12 34l-2 14q36 -11 70 -11q64 0 121 40 q64 45 75 108q2 12 2 22q0 49 -50 73q-34 16 -85 16q-172 0 -326 -191q-131 -162 -195 -386q-38 -131 -38 -230q0 -63 15 -113q33 -112 134 -112q59 0 115.5 32.5t100.5 84t84 114t68 125t48.5 114t30.5 84.5l10 32h237q-133 -453 -137 -463q-28 -79 -53.5 -141.5 t-59 -132.5t-67 -122.5t-76 -102.5t-88 -82t-101 -51.5t-116.5 -19.5q-56 0 -102.5 14.5t-82.5 46t-46 82.5q-3 18 -3 39q0 38 11 85q21 81 105 109q34 11 67 11q39 0 76 -16q65 -29 65 -88v-5q-2 -36 -29 -77q-27 24 -53 24q-21 0 -40 -15q-34 -26 -33 -67q0 -47 50 -58 q13 -3 29 -3q44 0 82.5 36t79.5 130t62 153.5t68 207.5q11 33 16 49q-153 -205 -369 -205q-235 0 -308 163z" />
<glyph unicode="H" horiz-adv-x="1490" d="M10 759q36 218 186 402q181 223 454 296q118 32 245 32q259 0 395 -119q-4 -2 -6 -2q-32 -5 -62 -29t-54.5 -59t-49.5 -89.5t-44.5 -108.5t-43 -129t-41.5 -138t-43 -148.5t-45 -148.5l336 184l225 764h238q-287 -981 -334 -1128q-23 -73 -29 -124q-3 -24 -3 -41 q0 -21 4 -33q7 -23 24 -25q4 -1 9 -1q61 0 142 173h43q-66 -163 -141 -227t-162 -64q-33 0 -59.5 9t-49.5 34.5t-33 65.5q-6 25 -6 61q0 20 2 46q6 68 32 155l69 237l-340 -186q-35 -104 -70 -185.5t-83 -160.5t-99.5 -131.5t-118.5 -84.5t-143 -32q-45 0 -83.5 9t-72 28.5 t-53.5 50.5q-20 32 -26 76q-2 12 -2 25q0 35 12 77q22 81 106 109q34 11 67 12q39 -1 75 -17q64 -28 64 -86v-5q-2 -36 -31 -78q-27 24 -53 24q-20 0 -39 -15q-31 -25 -31 -62q0 -50 52 -63q14 -3 30 -3q51 0 96.5 59t80 156t72.5 222.5t72.5 257.5t82 263t98.5 237t124 180 t158 93q-91 39 -258 39q-289 0 -473 -224q-136 -165 -177 -399q-14 -80 -14 -150q0 -98 28 -174q42 -113 128 -114q43 0 64 40q9 18 9 35q0 22 -16 41q-30 36 -104 36q0 70 68 104q35 17 70 17l68 -16q68 -33 68 -124q0 -94 -78.5 -156.5t-181.5 -62.5q-203 0 -296 150 q-58 96 -58 227q0 55 10 116z" />
<glyph unicode="I" horiz-adv-x="964" d="M11 758q37 218 186 402q183 224 458 297q118 32 246 32q119 0 222 -30t171 -89q-4 -2 -6 -2q-54 -8 -101 -66.5t-84 -150t-72.5 -207.5t-71.5 -242t-76 -251.5t-91.5 -238t-111.5 -199.5t-142.5 -138t-179.5 -51q-56 0 -103 14t-83 46q-36 31 -46 82q-3 17 -4 36 q0 39 13 88q21 81 104 109q35 12 68 12q38 0 74 -16q64 -29 64 -88q0 -38 -29 -82q-27 24 -53 24q-20 0 -40 -15q-33 -25 -33 -65q0 -48 53 -60q13 -3 30 -3q51 0 96.5 59t80 156t72.5 222.5t72.5 257.5t82 263t98.5 237t124 180t158 93q-91 39 -256 39q-290 0 -475 -225 q-137 -166 -179 -399q-15 -82 -14 -152q0 -97 27 -172q41 -113 127 -113q43 0 64 40q9 18 9 35q0 22 -16 41q-30 36 -104 36q0 70 68 104q35 17 70 17l68 -16q68 -33 68 -124q0 -95 -77.5 -157t-184.5 -62q-201 0 -292 149q-59 97 -59 228q0 54 10 115z" />
<glyph unicode="J" horiz-adv-x="1021" d="M12 -110q-11 32 -11 68q0 54 24 118q40 104 145 138q40 13 77 13q48 0 93 -21q76 -34 81 -106v-9q0 -51 -40 -109q-44 52 -92 52q-20 0 -40 -8q-50 -20 -73 -76q-10 -26 -10 -50q0 -34 23 -62q40 -47 137 -47q78 0 143.5 81.5t114.5 213.5t95 292.5t95.5 326t105.5 306 t136 240t176 121.5q-93 41 -258 41q-304 0 -483 -191q-124 -132 -151 -311q-6 -43 -6 -81q0 -95 39 -162q45 -78 126 -78q42 0 63 40q10 19 10 36q0 21 -15 40q-28 37 -101 37q0 71 68 105q34 16 68 16l66 -16q68 -33 68 -125q0 -93 -77.5 -156t-184.5 -63q-211 0 -305 132 q-58 80 -58 187q0 45 10 95q37 177 187 322q197 191 502 236q84 13 174 13q119 0 221.5 -30t167.5 -89q-2 -2 -4 -2q-92 -13 -168 -195q-44 -105 -128 -404q-98 -351 -168 -519q-153 -371 -371 -477q-96 -47 -208 -47q-92 0 -164 43.5t-100 120.5z" />
<glyph unicode="K" horiz-adv-x="1468" d="M10 759q36 218 186 402q181 223 455 296q118 32 246 32q259 0 395 -119q-4 -2 -6 -2q-35 -5 -66 -30.5t-58 -69t-51 -95.5t-48 -123t-44 -137.5t-45 -151.5q-3 -12 -5 -18q59 2 112 27.5t94 67t82 96t76 113.5t76 119.5t82 114.5t94.5 98t112.5 70q58 27 136 31 q12 1 25 0q67 0 142 -20q-54 -14 -112.5 -60.5t-113 -110.5t-113.5 -139t-123.5 -149.5t-132 -138t-150.5 -109.5t-169 -59q47 -6 105 -18q49 -59 74.5 -161t33 -198t18 -184.5t41.5 -139.5q27 -45 77 -45q7 0 14 1q-12 -53 -77 -91q-40 -24 -82 -23q-26 0 -52 9 q-53 18 -83 65.5t-38.5 111.5t-10.5 138.5t-5 151.5t-14.5 145t-46.5 124t-95 84q-30 -103 -53 -176t-58.5 -167.5t-68.5 -159.5t-78.5 -133.5t-93 -109.5t-109 -67.5t-129.5 -26.5q-45 0 -84 9t-73 28.5t-53 50.5q-20 32 -26 76q-2 12 -2 24q0 35 13 78q22 81 106 109 q34 11 67 12q39 -1 75 -17q64 -28 64 -86v-5q-2 -36 -31 -78q-27 24 -53 24q-20 0 -40 -15q-32 -25 -32 -65q0 -48 52 -60q13 -3 30 -3q45 0 86 47t74 126.5t64.5 183.5t64 221t67.5 235t78.5 228.5t93 199t116 149.5t142.5 78q-91 39 -258 39q-290 0 -475 -225 q-137 -166 -178 -401q-15 -81 -15 -152q0 -96 28 -171q41 -112 126 -112q43 0 66 40q10 19 10 36q0 21 -15 40q-28 36 -102 36q0 70 68 104q35 17 70 17l68 -16q68 -33 68 -124q0 -94 -78.5 -156.5t-181.5 -62.5q-203 0 -296 150q-60 98 -60 230q0 54 10 113z" />
<glyph unicode="L" horiz-adv-x="1251" d="M10 758q36 217 186 401q181 224 455 298q119 32 248 32q256 0 395 -119q-4 -2 -6 -2q-61 -10 -114.5 -84.5t-92 -184t-81.5 -254t-81.5 -282.5t-96 -281t-120.5 -239q60 25 118 27h10q52 0 92 -14q44 -15 92 -29.5t89 -22.5q13 -3 27 -3q30 0 64 12q50 17 100 63 q-60 -95 -113.5 -154.5t-94.5 -81.5q-42 -22 -80 -24q-3 0 -5 -1q-34 1 -64 17q-32 18 -61 41t-58.5 47t-59.5 39q-25 13 -53 13q-5 0 -11 -1q-36 -3 -73 -30q-117 -117 -261 -117q72 43 132 147.5t102.5 237.5t83 285t84 299t95 270.5t127 207.5t169.5 103q-89 39 -254 39 q-290 0 -475 -225q-137 -166 -179 -399q-15 -82 -14 -152q0 -97 27 -172q41 -113 127 -113q43 0 64 40q10 18 10 35q0 22 -16 41q-29 36 -101 36q0 70 68 104q34 17 68 17l66 -16q68 -33 68 -124q0 -94 -77 -156.5t-183 -62.5q-201 0 -293 149q-59 97 -59 228q0 54 10 115z " />
<glyph unicode="M" horiz-adv-x="1712" d="M11 759q36 218 186 401q182 224 456 297q118 32 246 32q256 0 395 -119l-207 -989q30 74 89 230q125 331 199 475q150 294 323 367q61 25 128 25q46 0 95 -12q-281 -981 -328 -1128q-23 -73 -29 -124q-3 -25 -4 -43q0 -19 4 -31q7 -23 25 -25q4 -1 9 -1q62 0 143 173h39 q-115 -291 -301 -291q-32 0 -58.5 9t-49.5 34.5t-33 65.5q-6 25 -7 60q1 21 3 47q6 68 32 155l274 944q-57 -69 -114 -171.5t-101.5 -210.5t-93.5 -228.5t-91.5 -230t-94 -210.5t-102 -174.5t-115 -117.5t-133.5 -44l241 1268q-56 -81 -107.5 -203t-89.5 -246.5t-77 -259 t-79 -250t-86 -208.5t-107 -147t-134 -54q-44 0 -83 9t-73 28.5t-54 50.5q-19 32 -25 76q-1 11 -1 23q0 36 13 79q22 81 106 109q35 12 68 12q38 0 74 -16q63 -29 63 -87v-5q-1 -36 -30 -78q-27 24 -53 24q-20 0 -40 -15q-32 -25 -32 -65q0 -48 52 -60q13 -3 30 -3 q50 0 95.5 59t80 155.5t72.5 222t73 257.5t82.5 262.5t99 236.5t125 180t158.5 93q-96 41 -258 41q-290 0 -475 -225q-137 -166 -178 -401q-15 -81 -14 -152q0 -96 27 -171q41 -112 126 -112q43 0 66 40q10 19 10 36q0 21 -15 40q-30 36 -104 36q0 70 69 104q35 17 70 17 l68 -16q69 -33 69 -124q0 -94 -79 -156.5t-183 -62.5q-203 0 -296 150q-59 97 -59 228q0 54 10 115z" />
<glyph unicode="N" horiz-adv-x="1505" d="M12 759q37 218 187 402q183 224 457 297q116 31 243 31q118 0 192 -23.5t116.5 -80.5t56.5 -139q11 -64 11 -158q0 -27 -1 -56q-4 -117 -37 -799q87 193 166 644q22 124 33.5 184.5t37 159t49.5 142.5t65.5 96.5t90.5 62.5q24 5 53 5q30 1 66 -5q70 -10 156 -56 q-78 -28 -145.5 -99t-118 -166.5t-96 -212t-84.5 -238t-79 -241t-84.5 -225t-94.5 -186t-116 -127.5t-143 -47l62 1366q-57 -79 -105.5 -203.5t-82 -254.5t-68 -272.5t-73 -268t-87 -228.5t-120.5 -167t-163 -72q-15 -1 -29 -1q-39 -1 -75 9q-48 14 -83 46.5t-47 85.5 q-5 21 -5 44q0 37 12 82q23 81 107 109q35 12 68 12q38 0 74 -16q65 -29 65 -88q0 -38 -29 -82q-26 23 -51 23q-21 0 -42 -17q-34 -27 -34 -71q0 -42 42 -50q12 -2 27 0q69 8 125.5 81t96.5 186.5t76.5 252t74.5 286.5t80.5 279.5t105 241.5t138.5 164q-76 12 -154 12 q-290 0 -475 -225q-137 -166 -179 -399q-15 -82 -15 -152q0 -97 28 -172q41 -113 127 -113q43 0 64 40q9 18 9 35q0 22 -16 41q-30 36 -104 36q0 70 68 104q35 17 70 17l68 -16q68 -33 68 -124q0 -94 -77 -156.5t-183 -62.5q-202 0 -293 150q-58 96 -58 225q0 56 11 118z " />
<glyph unicode="O" horiz-adv-x="1142" d="M6 164q-4 36 -5 75q0 73 14 155q21 128 73 263q87 236 217.5 423.5t297 301t337.5 113.5q107 0 181 -66t104 -178q20 -74 19 -167q0 -48 -4 -100q-16 -156 -81 -327q-67 -174 -159.5 -324.5t-201.5 -264.5t-236.5 -179t-254.5 -65q-86 0 -151.5 42t-101.5 119t-48 179z M264 146q6 -100 45.5 -156t112.5 -56q96 0 188 99.5t163 257.5t128 366q45 155 65 284q17 106 16 193v37q-4 101 -44 157t-113 56q-96 0 -189 -99.5t-165.5 -259t-130.5 -368.5q-42 -153 -62 -281q-15 -100 -16 -184q1 -24 2 -46z" />
<glyph unicode="P" horiz-adv-x="1296" d="M10 759q38 218 187 401q182 224 454 297q118 32 246 32q363 0 522 -178q96 -109 97 -255q0 -24 -3 -48q-16 -155 -122 -275q-114 -129 -271 -145q-19 -2 -39 -2q-75 0 -139 22q-31 -96 -55 -164t-60.5 -156t-70 -149t-80 -124.5t-95.5 -102.5t-111 -63.5t-130 -24.5 q-56 0 -102.5 14t-82.5 46q-35 31 -45 82q-3 18 -4 39q0 38 11 85q21 81 105 109q34 11 67 12q39 -1 75 -17q64 -28 63 -86v-5q-1 -36 -30 -78q-27 24 -53 24q-20 0 -40 -15q-33 -25 -33 -65q0 -48 53 -60q13 -3 30 -3q47 0 89 46t76.5 123.5t69 178.5t69.5 212.5t73 223.5 t85.5 213.5t102 180.5t126.5 127t155 51q-127 141 -364 141q-288 0 -459 -220q-127 -164 -156 -396q-7 -57 -6 -108q0 -123 38 -214q48 -113 134 -113q43 0 64 40q10 19 10 36q0 21 -16 40q-31 36 -105 36q0 70 69 104q35 17 70 17l68 -16q69 -33 69 -124q0 -94 -79 -156.5 t-183 -62.5q-203 0 -295 150q-59 97 -59 228q0 54 10 115zM969 688q61 -31 118 -31q54 0 100 37.5t73 100t37 135.5q4 27 4 54q1 48 -11 98q-18 80 -61 143q-39 -26 -73 -74.5t-70 -135.5t-56 -144.5t-61 -182.5z" />
<glyph unicode="Q" horiz-adv-x="1142" d="M8 386q17 149 82 319q66 174 155.5 318t195 249.5t229 164t252.5 58.5q143 0 228.5 -102.5t90.5 -278.5v-19q0 -169 -80 -390q-76 -204 -192 -370t-256 -272q54 -69 108 -113.5t125 -62.5q-63 -64 -119 -92q-53 -27 -93 -27h-4q-42 2 -82 30t-68 65t-60 92 q-112 -45 -221 -45q-107 0 -179 60t-100 164q-18 65 -18 148q0 49 6 104zM262 276q-1 -19 -1 -36q0 -220 153 -220q33 0 65 11q-73 133 -106 175q-54 67 -111 70zM266 334q37 5 70 5q32 0 60 -5q58 -9 104 -39t77.5 -61.5t69.5 -81.5q160 187 262 553q58 205 69 355 q2 30 2 57q0 111 -36 181q-43 86 -141 86q-270 0 -457 -679q-62 -212 -80 -371z" />
<glyph unicode="R" horiz-adv-x="1447" d="M10 759q37 217 187 401q182 224 457 297q118 32 247 32q359 0 518 -177q96 -108 96 -254q0 -24 -2 -48q-15 -156 -121 -277q-114 -129 -272 -145q-19 -2 -39 -2h-2q35 -12 103 -47q50 -59 74 -146.5t28 -164t12 -144.5q6 -70 36 -106q25 -31 72 -30q9 0 19 1 q-15 -53 -80 -91q-40 -24 -81 -23q-26 0 -52 9q-52 18 -81 63t-37.5 104.5t-9 128.5t-2 139.5t-11 132.5t-41.5 113.5t-88 76.5q-31 -95 -55 -163t-60.5 -155t-70 -147.5t-80 -124t-95 -101.5t-110 -62.5t-129.5 -24.5q-45 0 -83.5 9t-72 28.5t-53.5 50.5q-20 32 -26 76 q-2 12 -2 25q0 35 12 77q22 81 107 109q34 12 67 12q39 0 75 -17q62 -28 62 -85v-7q-2 -36 -31 -77q-27 24 -53 24q-20 0 -39 -15q-31 -25 -31 -62q0 -50 52 -63q14 -3 30 -3q52 0 99.5 57.5t83.5 152t77 215t78.5 246.5t89.5 248t108.5 217.5t136.5 156t173 63.5 q-127 141 -366 141q-288 0 -459 -220q-127 -164 -155 -396q-7 -57 -6 -108q0 -123 38 -214q48 -113 135 -113q43 0 64 40q9 18 9 35q0 22 -16 41q-30 36 -104 36q0 70 68 104q35 17 70 17l68 -16q68 -33 68 -124q0 -94 -77 -156.5t-183 -62.5q-203 0 -296 150 q-58 96 -58 227q0 55 10 116zM969 686q62 -29 116 -29q67 0 121 58q53 59 77 143q16 56 16 120q0 32 -4 66q-12 102 -66 181q-32 -21 -62.5 -63.5t-52.5 -84.5t-51.5 -119t-45.5 -125.5t-48 -146.5z" />
<glyph unicode="S" horiz-adv-x="1153" d="M6 215q-5 34 -5 67q0 60 17 118q27 92 76 166.5t133.5 120.5t184.5 46q138 0 201 -98q35 -55 36 -117q0 -28 -8 -58q-22 -92 -99 -131q-40 -20 -88 -20h-5q20 38 20 71q0 14 -4 28q-12 45 -56 73q-37 24 -82 24q-8 0 -16 -1q-98 -5 -151 -103q-38 -69 -38 -152 q0 -33 6 -67q24 -139 132 -214q68 -47 160 -58q24 -3 47 -3q71 0 137 28q88 37 147 106t93 161.5t34 186t-43 185.5t-128 155q-87 66 -139.5 150.5t-66.5 168.5q-5 32 -5 64q0 51 14 101q22 81 76.5 143.5t148.5 100.5t213 38q166 0 252 -111q57 -73 57 -162q0 -18 -2 -37 q-13 -111 -99 -171q-66 -47 -161 -47q-44 0 -79 14.5t-54.5 38.5t-29 51.5t-5 55.5t20.5 49q53 -18 98 -18q59 0 103 32q52 37 52 94v6q-3 67 -75 104q-33 17 -78 23q-22 3 -43 3q-39 0 -75 -11q-54 -17 -88 -51t-48 -84q-9 -31 -8 -64q0 -20 2 -40q8 -54 47 -114.5 t105 -113.5q93 -75 152 -169q58 -93 80 -189q16 -71 16 -144q0 -24 -2 -50q-8 -98 -43 -186t-96.5 -163t-141 -126t-181.5 -75q-66 -15 -135 -15q-38 0 -77 5q-124 15 -215.5 72.5t-133.5 138t-57 174.5z" />
<glyph unicode="T" horiz-adv-x="1071" d="M11 780q38 217 189 401q108 132 253 214q108 61 232 85q91 17 176 17q31 -1 61 -3q112 -8 227 -29t219 -43q103 -22 196 -30q26 -2 51 -2q65 0 123 16q82 22 140 83q-50 -82 -109 -137.5t-118 -84.5t-129 -39q-50 -7 -97 -7q-19 0 -37 1q-63 4 -139 19q-49 -19 -93 -80.5 t-79.5 -148t-71 -193.5t-72 -220t-77.5 -224.5t-93.5 -210.5t-113 -175t-142 -120.5t-175.5 -44.5q-44 0 -83 9t-73 28.5t-54 50.5q-19 32 -25 76q-1 11 -1 23q0 36 13 79q22 81 107 109q34 12 67 12q39 0 75 -17q62 -28 62 -85v-7q-2 -36 -31 -77q-27 24 -53 24 q-20 0 -40 -15q-32 -25 -32 -65q0 -48 52 -60q13 -3 30 -3q46 0 87.5 44.5t75.5 120.5t67.5 175t68 209t71.5 220.5t83.5 212t99 181.5t122.5 131.5t150 59.5q-38 9 -110 27.5t-114 28.5t-106 22q-63 12 -109 13h-17q-39 1 -83 -3q-54 -4 -100.5 -22.5t-89.5 -49.5 q-72 -52 -124.5 -129t-77.5 -161q-26 -84 -36 -172q-5 -43 -6 -84q0 -42 6 -82q11 -78 34 -141t61.5 -99.5t85.5 -36.5q43 0 64 40q9 18 9 35q0 22 -16 41q-30 37 -104 37q0 70 69 104q35 17 70 17l68 -16q69 -33 69 -125t-79.5 -154.5t-182.5 -62.5q-203 0 -294 150 q-58 95 -58 224q0 56 11 119z" />
<glyph unicode="U" horiz-adv-x="1568" d="M22 755q55 217 219 401q203 228 487 302q119 31 245 31q264 0 395 -119q-10 -2 -22 -4q-108 -26 -248 -285.5t-235 -590.5q-73 -257 -73 -402q0 -41 6 -73q15 -81 68 -81q57 0 116 58.5t111 157.5t91 192t75 199l273 934h233q-280 -990 -327 -1137q-23 -73 -30 -124 q-4 -26 -4 -44t4 -30q7 -23 24 -25q5 -1 10 -1q32 0 64 40q36 46 79 133h43q-120 -291 -305 -291q-137 0 -147 145q-173 -317 -396 -317q-155 0 -199 183q-16 67 -16 148q0 149 53 347q82 304 239 546q164 253 337 315q20 7 39 11q-94 39 -258 39q-292 0 -501 -229 q-152 -167 -215 -400q-31 -116 -31 -208q0 -62 14 -114q32 -109 116 -110q42 0 63 40q9 18 9 35q0 22 -16 41q-31 36 -105 36q-1 70 69 104q35 17 70 17q34 0 69 -16q69 -33 69 -124q0 -94 -79 -156.5t-183 -62.5q-201 0 -280 147q-42 79 -42 181q0 74 22 161z" />
<glyph unicode="V" horiz-adv-x="1456" d="M21 755q55 217 219 402q204 227 488 301q120 31 247 31q256 0 395 -119q-10 -2 -22 -4q-108 -27 -248.5 -286.5t-234.5 -589.5q-74 -258 -74 -403q0 -40 6 -72q15 -81 69 -81q52 0 126 82t155.5 231t160 337.5t147.5 423.5t110 467h94q-25 -170 -79 -378.5t-139.5 -434.5 t-184.5 -411.5t-225 -306t-251 -120.5q-156 0 -200 183q-16 66 -16 147q0 149 54 348q82 304 239 546q164 253 336 315q19 7 38 11q-98 39 -256 39q-293 0 -502 -230q-152 -168 -216 -402q-31 -115 -31 -207q0 -62 14 -114q31 -107 112 -108q43 0 66 40q10 19 10 36 q0 21 -15 40q-30 36 -104 36q-1 70 69 104q35 17 70 17q34 0 69 -16q69 -33 69 -124q0 -94 -79 -156.5t-183 -62.5q-201 0 -281 147q-43 80 -43 184q0 73 21 158z" />
<glyph unicode="W" horiz-adv-x="1931" d="M21 755q55 217 219 402q204 227 488 301q120 31 247 31q259 0 395 -119q-10 -2 -22 -4q-108 -26 -248 -285.5t-235 -590.5q-73 -257 -73 -402q0 -41 6 -73q15 -81 68 -81q70 0 195 134q-11 59 -11 129q0 33 2 67q8 110 28 230.5t59 244t85.5 237.5t106.5 210.5t122 163.5 q61 66 133 96q43 18 84 18q28 0 56 -8q54 -16 64 -90q2 -17 3 -36q1 -62 -23 -145q-30 -108 -83.5 -237t-123.5 -263.5t-139.5 -254.5t-133.5 -215q-5 -54 -5 -98q0 -183 81 -183q52 0 126 82t155.5 231t160 337.5t147 423.5t109.5 467h97q-21 -140 -63.5 -309.5 t-103.5 -356.5t-140.5 -361t-168 -314.5t-194.5 -225t-211 -84.5q-136 0 -195 153q-159 -153 -305 -153q-155 0 -199 182q-16 67 -16 149q0 149 53 346q82 304 238 547q164 253 336 315q20 7 39 11q-91 39 -256 39q-293 0 -502 -230q-152 -168 -216 -402q-31 -115 -31 -207 q0 -62 14 -114q31 -107 112 -108q45 0 67 40q11 19 11 36q0 20 -15 39q-30 37 -106 37q-1 70 69 104q35 17 70 17q34 0 69 -16q69 -33 69 -124q0 -94 -79 -156.5t-183 -62.5q-201 0 -281 147q-43 80 -43 184q0 73 21 158zM1313 420q61 100 139 253t144 307q66 152 98 262 q16 54 16 86q0 31 -16 38q-4 1 -9 1q-35 -1 -85 -85q-56 -96 -110.5 -243.5t-102.5 -315.5t-74 -303z" />
<glyph unicode="X" horiz-adv-x="1429" d="M4 -34q-3 18 -3 39q0 38 11 85q21 81 105 109q35 12 68 12q39 0 75 -16q66 -30 66 -90q0 -36 -29 -80q-27 24 -53 24q-20 0 -40 -15q-34 -26 -33 -67q0 -47 50 -58q13 -3 29 -3q41 0 93 43.5t103 111t118.5 171.5t127 203t140.5 229.5t147 228.5l-88 606l115 -10 q30 -223 65 -463q43 59 84 109t86 99.5t88.5 87.5t90.5 72.5t91.5 55.5t93.5 35q44 13 86 13h9q46 -2 96 -13q-118 0 -297 -230q-98 -126 -308 -458q-49 -79 -71 -113q87 -572 182 -592q3 -1 7 -1q43 0 99 107q17 31 44 89h43q-93 -238 -192 -276q-18 -7 -34 -7 q-90 0 -161 193q-47 131 -82 344q-82 -124 -151 -219.5t-153 -193.5t-160 -161t-161 -103t-165 -40q-56 0 -102.5 14t-83 45.5t-46.5 82.5z" />
<glyph unicode="Y" horiz-adv-x="1439" d="M23 755q55 217 220 402q203 227 487 301q119 31 245 31q191 0 330 -119q-19 -4 -37 -6q-113 -29 -228 -215q-109 -176 -157 -380q-22 -95 -22 -163q0 -74 27 -114q24 -35 68 -35q105 0 240 211q42 139 77 237t87.5 203.5t107.5 164.5t130 89q45 17 93 17q34 0 70 -9 q-34 -4 -64 -25t-57.5 -68t-47.5 -89t-46.5 -124t-41.5 -133.5t-44 -154.5q-30 -106 -46 -161.5t-49 -159t-57 -162.5t-64 -146.5t-77 -139t-89 -112t-105.5 -93t-121 -54.5t-142.5 -22q-90 0 -162.5 43.5t-101.5 120.5q-12 33 -12 70q0 53 24 116q40 104 146 138 q40 13 77 13q49 0 94 -21q76 -35 82 -106q1 -6 1 -12q0 -50 -38 -106q-45 52 -95 52q-20 0 -41 -8q-51 -20 -74 -76q-11 -27 -11 -51q0 -34 23 -61q40 -47 137 -47q44 0 83 23.5t74 77t62 105.5t59 144.5t52 156.5t53 177q-130 -127 -271 -127q-170 0 -225 150 q-24 64 -24 143q0 92 33 205q61 206 195 357q138 157 298 179q-73 31 -172 31q-292 0 -501 -229q-152 -167 -215 -400q-32 -117 -32 -210q0 -61 14 -112q32 -109 115 -110q43 0 64 40q10 19 10 36q0 21 -16 40q-31 36 -105 36q0 71 69 104q36 17 70 17q35 0 69 -16 q69 -33 69 -124q0 -94 -79 -156.5t-183 -62.5q-201 0 -280 147q-43 79 -43 183q0 73 22 159z" />
<glyph unicode="Z" horiz-adv-x="1185" d="M0 871q10 178 140 330q103 120 263 194q113 52 232 71q79 13 150 12q35 0 69 -2q100 -10 200.5 -29.5t187.5 -38.5q88 -18 166 -24q14 -1 28 -1q62 1 122 21q72 24 130 85q-107 -179 -244 -238h2q-69 -45 -156.5 -151t-179 -241t-186.5 -276.5t-208.5 -288.5t-215.5 -245 q53 23 69 27q40 6 80 6l44 -2q62 -6 115.5 -23t108.5 -31t103 -20q14 -2 27 -2q35 0 73 12q52 16 97 60q-37 -60 -74.5 -105t-70 -75t-68.5 -48q-35 -18 -63 -26q-21 -6 -45 -6q-10 0 -18 1q-34 3 -58 8.5t-57.5 20.5t-54 26.5t-53.5 30.5q-34 20 -52.5 30t-49 23.5 t-52 17.5t-48 3t-50.5 -12q-182 -141 -342 -141q45 0 106 56.5t129.5 153t144.5 216.5t163 254.5t174 258.5t187.5 238.5t193.5 184.5q64 12 150 35q-15 -1 -30 -1q-69 0 -151 18q-102 22 -191 49t-183 47q-58 12 -117 12q-35 0 -70 -4q-94 -12 -174 -66q-67 -46 -111 -112 q-44 -68 -58 -136q-10 -48 -11 -97q0 -21 2 -41q6 -70 31.5 -123t69.5 -86.5t98 -33.5q42 0 63 43q11 22 11 43q0 23 -14 44q-29 42 -103 42q-1 71 67 103q33 16 67 16l69 -17q68 -33 67 -122q0 -99 -83 -187t-198 -98q-23 -2 -45 -2q-146 0 -233 99q-83 94 -83 235 q0 12 1 25z" />
<glyph unicode="[" horiz-adv-x="598" d="M18 -266l422 1403h469v-72h-307l-377 -1260h291v-71h-498z" />
<glyph unicode="\" horiz-adv-x="571" d="M6 1137h100l449 -1137h-102z" />
<glyph unicode="]" horiz-adv-x="606" d="M-221 -195h305l377 1260h-289v72h498l-422 -1403h-469v71z" />
<glyph unicode="^" horiz-adv-x="559" d="M203 735l270 209h49l111 -217l-39 -27l-166 115l-205 -104z" />
<glyph unicode="_" horiz-adv-x="444" d="M-109 -57h445v-72h-445v72z" />
<glyph unicode="`" horiz-adv-x="579" d="M111 1055v137l352 -199l-8 -28z" />
<glyph unicode="a" d="M-10 156q2 49 21 119t55 153q37 85 93 154t119 112q62 44 130 68q66 24 130 25h2q64 0 119 -25q-114 -381 -147 -490q-16 -49 -18.5 -77t3.5 -36.5t19 -11.5q5 -2 11 -2q21 -1 49 19q36 24 59 74h29q-45 -116 -118.5 -174t-137.5 -58q-43 0 -73.5 25t-33.5 84 q-46 -47 -103 -78t-110 -31q-32 0 -54 16t-34 50q-10 31 -11 73q1 5 1 11zM194 288q-6 -35 -5 -61q0 -62 32 -65q32 0 86 43q4 20 19 67l120 404q-12 4 -24 4q-60 0 -132 -132q-71 -129 -96 -260z" />
<glyph unicode="b" horiz-adv-x="518" d="M-12 123q0 5 -1 10q-1 22 5 54q6 39 15 74t24 87l276 903h185q-238 -799 -277 -903q-6 -22 -16 -53t-16.5 -50.5t-12.5 -43.5t-7 -38t1 -27t11.5 -19t25.5 -6q60 0 125.5 103t101.5 237q-44 12 -66 60q-19 41 -19 103q0 11 1 23l201 135q-6 -40 -6 -71q0 -25 4 -43 q9 -42 36.5 -57.5t57.5 -13.5t63 17q-108 -126 -202 -151q-24 -84 -59 -160t-80.5 -142t-105 -105.5t-122.5 -39.5q-39 0 -66 8t-44 21.5t-24 38t-9 49.5z" />
<glyph unicode="c" horiz-adv-x="567" d="M21 399q44 165 160 272q119 109 272 109q113 0 147 -86q13 -32 13 -65q0 -55 -35 -109q-56 -86 -160 -86q-77 0 -97 61q-6 18 -6 35q0 33 21 67q32 49 83 49q7 0 15 -1l12 -2q-23 -22 -12 -54t37 -32q22 0 27 40q2 11 2 22q0 40 -24 68q-23 28 -62 28q-86 0 -150 -149 q-58 -135 -58 -270v-28q6 -149 89 -149q50 0 103 28t92 68t71.5 80t48.5 68l17 28h35q-3 -8 -9.5 -21.5t-28.5 -53.5t-46.5 -76t-64.5 -79.5t-82 -75.5t-98 -53.5t-114 -21.5q-137 0 -190 120q-27 60 -27 135q0 62 19 134z" />
<glyph unicode="d" d="M-12 156q2 49 21.5 119t56.5 153q62 147 176 239.5t237 112.5l142 471h186q-256 -870 -291 -979q-16 -50 -18.5 -77.5t4 -36t20.5 -11.5q24 -7 57 17.5t56 73.5h35q-47 -116 -120.5 -174t-137.5 -58q-106 0 -111 111q-44 -48 -101 -79.5t-112 -31.5q-33 0 -56 16 q-22 17 -34 51q-10 29 -10 69v14zM190 288q-6 -35 -6 -61q0 -62 33 -65q34 0 92 45q6 32 17 65l120 402q-12 6 -28 6q-60 0 -132 -132q-71 -129 -96 -260z" />
<glyph unicode="e" horiz-adv-x="567" d="M23 399q44 165 160 272q119 109 272 109q101 0 127 -87q8 -26 8 -55q0 -62 -37 -135q-56 -114 -161 -170q-68 -36 -143 -36q-20 0 -40 2q-2 -22 -2 -42q0 -142 90 -142q51 0 104 28.5t92.5 69t72 81t48.5 68.5l17 29h33q-3 -8 -9.5 -21.5t-29 -53.5t-47.5 -76 t-64.5 -79.5t-81.5 -75.5t-98 -53.5t-113 -21.5q-137 0 -190 120q-27 60 -27 135q0 62 19 134zM217 367q13 -4 25 -4q57 0 115 87q58 88 76 188q4 23 4 40q0 44 -25 45q-52 0 -111.5 -113t-83.5 -243z" />
<glyph unicode="f" horiz-adv-x="468" d="M-117 -162q238 810 328 1104q26 87 62.5 151.5t75.5 103t87.5 62t93.5 31.5t99 8q116 0 151 -86q13 -32 13 -64q0 -53 -36 -106q-57 -86 -161 -86q-77 0 -96 61q-6 18 -6 35q0 34 22 67q32 49 84 49q8 0 17 -1l12 -2q-24 -22 -15.5 -54t35.5 -32q22 0 27 40q2 11 2 22 q0 40 -24 68q-23 28 -62 28q-52 0 -97 -56.5t-75 -152.5q-23 -75 -121 -416l168 117q-5 -32 -5 -58q0 -32 7 -56q12 -44 39 -58t57.5 -12.5t63.5 16.5q-51 -59 -102 -97.5t-93 -51.5q-27 -7 -50 -7q-15 0 -28 3q-34 7 -56 37.5t-28 80.5l-198 -688h-191z" />
<glyph unicode="g" horiz-adv-x="569" d="M-111 -137q28 80 105 100q21 5 41 5q42 0 77 -25q41 -29 41 -74q0 -16 -5 -34q-3 -9 -7 -19q-29 20 -54 20t-45 -20q-23 -24 -23 -56q0 -8 1 -16q14 -43 58 -47q19 0 36.5 11.5t33 37t27.5 49.5t25.5 66t21.5 69t22 76l20 70q0 1 1 4.5t1 5.5q-94 -80 -178 -80 q-33 0 -56.5 16.5t-35.5 50.5q-9 29 -9 69v14q2 49 21 119t55 153q36 85 91.5 154t118.5 112.5t130 67.5q66 25 129 25l2 -1q65 0 119 -24q-118 -400 -202 -690q-30 -97 -61 -167.5t-75.5 -134.5t-105 -97t-135.5 -33q-107 0 -162 67q-35 42 -35 94q0 29 12 62zM190 290 q-6 -37 -6 -63q0 -61 33 -65q27 0 86 41q42 139 139 471q-12 6 -26 6q-59 0 -131 -131q-70 -128 -95 -259z" />
<glyph unicode="h" horiz-adv-x="575" d="M-70 0l371 1251h184l-180 -606q93 135 191 135q90 0 90 -101q0 -32 -9 -75q-15 -69 -84 -255q-49 -131 -48 -174v-9q4 -19 22 -19q27 0 59 22t56 69h32q-47 -116 -120.5 -174t-135.5 -58q-103 0 -103 118q0 41 12 96q16 71 85 259q38 106 38 140q0 8 -2 12q-3 6 -11 6 q-51 0 -148 -252l-114 -385h-185z" />
<glyph unicode="i" horiz-adv-x="313" d="M-14 160q4 48 24 112l158 508h184q-122 -399 -155 -508q-16 -49 -17.5 -77t5 -36t20.5 -12q21 -7 56 17.5t58 73.5h29q-47 -118 -119 -175t-139 -57q-23 0 -42 6.5t-36 24.5q-16 19 -24 47q-5 18 -4 43q0 15 2 33zM219 1071q0 54 35.5 88.5t89.5 34.5q51 0 87 -35t36 -88 q0 -51 -36.5 -88t-86.5 -37q-53 0 -89 36.5t-36 88.5z" />
<glyph unicode="j" horiz-adv-x="282" d="M-426 -137q28 80 106 100q21 5 41 5q42 0 77 -24q42 -28 42 -73q0 -15 -5 -32q-3 -11 -9 -23q-30 20 -54 20t-43 -20q-23 -24 -23 -54q0 -9 2 -18q14 -44 61 -47q18 0 34.5 12t31 36t26.5 50t25.5 65.5t22.5 70t22.5 75t21.5 70.5l211 704h184q-123 -418 -213 -708 q-22 -77 -44.5 -135.5t-55.5 -116.5t-71 -95.5t-90.5 -61t-115.5 -23.5q-103 0 -160 67q-36 43 -36 95q0 29 12 61zM211 1071q0 53 36 88t87 35q52 0 88.5 -35t36.5 -88q0 -51 -37 -88t-88 -37q-50 0 -86.5 37t-36.5 88z" />
<glyph unicode="k" horiz-adv-x="577" d="M-70 0l373 1251h189l-181 -604q90 133 187 133q71 0 91 -75q6 -25 6 -52q0 -61 -32 -132q-54 -117 -160 -169q-16 -8 -34 -14q0 -47 9.5 -91.5t32 -79t54.5 -34.5q27 0 60.5 27.5t58.5 77.5h32q-47 -116 -120.5 -174t-137.5 -58q-125 0 -153 293l-88 -299h-187zM227 373 q82 14 140 107q42 66 42 116v9q-2 32 -26 32q-17 0 -35.5 -19.5t-38.5 -57.5t-34 -68.5t-33 -75.5z" />
<glyph unicode="l" horiz-adv-x="313" d="M-16 139q2 55 26 133l295 979h187q-258 -870 -291 -979q-16 -49 -18.5 -77t3.5 -36.5t19 -11.5q24 -7 57.5 17.5t56.5 73.5h33q-45 -116 -118.5 -174t-137.5 -58q-32 0 -56 12q-23 10 -40 38q-16 25 -16 74v9z" />
<glyph unicode="m" horiz-adv-x="827" d="M-70 0l232 780h186l-29 -92q79 92 158 92q91 0 91 -103q0 -8 -1 -18q89 121 181 121q90 0 90 -101q0 -32 -9 -75q-15 -69 -84 -255q-49 -131 -48 -174v-9q4 -19 22 -19q27 0 60 22t55 69h32q-45 -116 -119 -174t-137 -58q-103 0 -103 118q0 41 12 96q16 71 85 259 q38 106 38 140q0 8 -2 12q-3 6 -11 6q-32 0 -84 -102l-6 -21l-154 -508h-184q118 399 151 508q25 83 26 102t-16 21q-20 1 -40.5 -24t-45.5 -72l-161 -541h-185z" />
<glyph unicode="n" horiz-adv-x="575" d="M-70 0l234 780h186l-39 -129q90 129 187 129q89 0 89 -100q0 -31 -8 -71q-15 -68 -85 -254q-50 -133 -50 -177q0 -5 1 -9q4 -22 24 -22q24 0 57.5 22.5t55.5 68.5h28q-45 -116 -118.5 -174t-137.5 -58q-100 0 -100 115q0 41 13 98q17 70 86 259q39 107 39 141q0 8 -2 12 q-3 6 -11 6q-50 0 -133 -207l-129 -430h-187z" />
<glyph unicode="o" horiz-adv-x="595" d="M35 395q46 161 158.5 273t226.5 112q61 0 102 -19.5t61.5 -53.5t24.5 -84q2 -18 2 -37q0 -33 -5 -68q-8 -55 -27 -123q-51 -160 -163 -272.5t-222 -112.5q-190 0 -190 194q0 79 32 191zM200 224q-4 -34 -4 -59q0 -69 29 -69q44 0 104 145q66 157 86 305q5 37 5 63 q0 71 -33 71q-51 0 -111 -153.5t-76 -302.5z" />
<glyph unicode="p" horiz-adv-x="577" d="M-176 -356l342 1136h184l-39 -131q89 131 187 131q90 0 90 -101q0 -32 -9 -75q-15 -69 -84 -255q-49 -131 -49 -174q0 -5 1 -9q4 -19 22 -19q27 0 60 22t55 69h32q-45 -116 -118.5 -174t-137.5 -58q-103 0 -103 118q0 41 12 96q16 71 85 259q38 106 38 140q0 8 -2 12 q-3 6 -11 6q-16 0 -35.5 -23.5t-41.5 -67.5t-36.5 -77t-34.5 -82l-223 -743h-184z" />
<glyph unicode="q" horiz-adv-x="587" d="M-11 156q2 49 22 119t57 153q36 85 91.5 154t118.5 112.5t130 67.5q66 25 128 25l3 -1q64 0 118 -24l-331 -1114h-187l131 438q-94 -80 -178 -80q-34 0 -57.5 16t-35.5 50q-10 30 -10 70v14zM193 290q-5 -34 -5 -59q0 -65 33 -69q33 0 84 41l141 471q-12 6 -26 6 q-59 0 -132 -131q-70 -127 -95 -259z" />
<glyph unicode="r" horiz-adv-x="436" d="M-70 0l234 780h186l-28 -92l176 117q-6 -40 -6 -70q0 -25 4 -43q9 -42 36.5 -58t58 -14t62.5 17q-85 -100 -165 -137q-45 -21 -80 -21q-28 0 -50 13q-51 29 -61 114l-180 -606h-187z" />
<glyph unicode="s" horiz-adv-x="544" d="M2 238q28 89 106 103q16 3 32 3q58 0 100 -42q36 -35 37 -79q0 -22 -9 -47q-30 28 -57 28q-18 0 -35 -13q-31 -22 -31 -62q0 -47 45 -59q5 -1 11 -2q7 -1 13 -1q38 -1 66 25q32 30 42 73q3 15 4 32q0 29 -11 61q-17 50 -61 80q-52 36 -85 84t-43 97q-4 22 -4 43 q0 27 6 54q12 48 44 85t89 60t130 23q101 0 155 -52q38 -37 38 -88q0 -21 -6 -44q-21 -76 -92 -97q-23 -7 -44 -7q-37 0 -68 21q-43 28 -43 75q0 14 4 30q2 8 5 15q33 -23 59 -23q20 0 37 13q28 22 21 55q-16 38 -66 41q-40 0 -69.5 -26t-39.5 -63q-3 -13 -2 -27 q0 -26 10 -54q18 -44 64 -76q56 -37 89.5 -88t40.5 -103q2 -15 2 -30q0 -36 -12 -72q-16 -51 -51.5 -90t-94.5 -63.5t-131 -24.5q-97 0 -161 75q-44 51 -43 106q0 25 9 51z" />
<glyph unicode="t" horiz-adv-x="358" d="M8 95q-11 33 -12 77q0 73 31 176l102 332h-74v92h103l102 336h184q-47 -162 -100 -336h129v-92h-156l-100 -332q-14 -41 -22 -75t-10.5 -58.5t0.5 -41.5t11 -25.5t21 -8.5q28 0 65.5 37.5t72.5 94t59.5 102t40.5 80.5h32q-23 -60 -57 -127.5t-82 -144t-106 -126 t-111 -49.5q-93 0 -123 89z" />
<glyph unicode="u" horiz-adv-x="575" d="M-14 160q4 48 24 112l154 508h184q-118 -399 -151 -508q-15 -48 -18 -78t1.5 -38.5t12.5 -8.5q12 0 36 35t39 76l4 14l158 508h184q-122 -399 -155 -508q-16 -49 -17.5 -77t5 -36t20.5 -12q21 -7 56.5 18t58.5 73h32q-50 -118 -122.5 -175t-137.5 -57q-47 0 -77 29.5 t-29 99.5q-69 -129 -156 -129q-24 0 -43 6.5t-35 24.5q-16 19 -24 47q-5 18 -5 43q-1 15 1 33z" />
<glyph unicode="v" horiz-adv-x="507" d="M-12 164q5 42 14.5 83t26.5 101l133 432h186q-96 -328 -133 -432q-44 -147 -46 -186v-8q0 -43 32 -43q60 0 125.5 103t101.5 237q-44 12 -67 60q-20 41 -20 104q0 11 1 22l201 135q-5 -38 -5 -68q0 -26 4 -46q9 -42 36.5 -57.5t58 -13.5t63.5 17q-107 -125 -204 -151 q-24 -84 -59 -160t-80.5 -142t-105 -105.5t-122.5 -39.5q-44 0 -74 10t-45.5 32t-21.5 48q-3 14 -2 32q0 16 2 36z" />
<glyph unicode="w" horiz-adv-x="770" d="M-14 160q4 48 24 112l158 508h184q-122 -399 -155 -508q-20 -62 -20 -93.5t20 -31.5q9 0 31.5 34t41.5 75q2 9 27 92l127 432h190q-100 -328 -133 -432q-50 -150 -50 -192q0 -45 36 -45q59 0 123 102.5t100 237.5q-44 12 -66 60q-19 41 -19 103q0 11 1 23l199 135 q-5 -38 -5 -68q0 -26 4 -46q9 -42 37 -57.5t58.5 -13.5t63.5 17q-111 -129 -205 -151q-24 -84 -59 -160t-80.5 -142t-105 -105.5t-122.5 -39.5q-81 0 -113 32q-31 31 -30 91v8q-69 -131 -156 -131q-24 0 -43 6.5t-35 24.5q-16 19 -24 47q-5 18 -5 43q-1 15 1 33z" />
<glyph unicode="x" horiz-adv-x="522" d="M-98 0l260 311q-1 30 -1 61q0 70 6 152q9 118 19 187l11 69h184q-21 -112 -31 -243l203 243h94l-305 -364q-1 -31 -1 -58q0 -211 75 -211q27 0 58.5 22t53.5 69h35q-47 -116 -120.5 -174t-137.5 -58q-107 0 -135 207l-178 -213h-90z" />
<glyph unicode="y" horiz-adv-x="534" d="M-160 -137q28 80 105 100q21 5 41 5q42 0 77 -25q41 -29 41 -74q0 -16 -5 -34q-3 -9 -7 -19q-30 20 -54 20t-43 -20q-23 -24 -23 -56q0 -8 1 -16q16 -42 56 -47q19 0 36.5 11.5t33 37t27.5 49.5t25.5 66t21.5 69t22 76l20 70q-52 -70 -119 -70q-25 0 -45 6.5t-37 24.5 t-24 47q-4 15 -4 38q0 17 2 38q6 49 26 112l154 508h184q-118 -399 -151 -508q-16 -50 -20 -78.5t0.5 -37.5t15.5 -9t32.5 31.5t36.5 69.5l158 532h186q-119 -418 -209 -708q-24 -78 -46 -135t-55.5 -116.5t-70.5 -96.5t-89 -60.5t-115 -23.5q-107 0 -162 67q-35 42 -35 94 q0 29 12 62z" />
<glyph unicode="z" horiz-adv-x="528" d="M-92 0l514 621q-36 -10 -77 -10t-70.5 2t-60.5 -1t-60 -23t-56 -61q49 91 100 148.5t96 79.5q44 20 86 26q17 2 34 3q24 0 46 -5q38 -8 72 -16q26 -6 51 -6h12q31 2 54 22l-497 -596l194 125q3 -71 22.5 -116.5t53.5 -45.5q27 0 59 22t54 69h28q-45 -117 -117.5 -174.5 t-138.5 -57.5q-44 0 -77 32t-52 91l-180 -129h-90z" />
<glyph unicode="{" horiz-adv-x="544" d="M123 64.5q-1 60.5 9.5 122.5t27 118t28 104t9 87.5t-26.5 62.5q43 23 72 55t46 66.5t33.5 74t44 82t68 84t115 86.5t176.5 85l14 -35q-53 -29 -94.5 -75t-65.5 -94.5t-50 -103t-49.5 -101t-63 -88t-90.5 -63.5q32 -54 32 -121t-22 -129t-44.5 -137t-34 -145t8.5 -152 l-33 -24q-55 53 -82 116.5t-28 124z" />
<glyph unicode="|" horiz-adv-x="643" d="M23 -145l483 1595h82l-484 -1595h-81z" />
<glyph unicode="}" horiz-adv-x="692" d="M-119 -141q53 29 95 75t65.5 94.5t50 103t50 100.5t63 87.5t90.5 63.5q-27 46 -31.5 100.5t9.5 106t33 111.5t37 116.5t22 122t-11 127.5l33 25q55 -53 82 -117t28 -124.5t-9.5 -122.5t-26.5 -118t-27.5 -104t-9 -87.5t26.5 -62.5q-43 -23 -72 -54.5t-46 -66.5t-33.5 -74 t-44 -81.5t-68 -84.5t-115 -86.5t-176.5 -84.5z" />
<glyph unicode="~" horiz-adv-x="796" d="M160 356q39 74 97.5 122.5t122 54t116.5 -57.5q25 -30 52.5 -39.5t49 -2t40 19t28.5 23.5l10 11l35 -28q-64 -75 -125 -116.5t-121 -41t-103 54.5q-25 32 -52 40t-47 -2.5t-36.5 -25.5t-24.5 -30l-9 -14z" />
<glyph unicode="&#xa1;" horiz-adv-x="284" d="M0 0l326 844h112l-233 -844h-205zM379 1180q0 38 29 67t69 29q41 0 68.5 -28.5t27.5 -67.5q0 -43 -27.5 -71t-68.5 -28q-40 0 -69 28.5t-29 70.5z" />
<glyph unicode="&#xa2;" horiz-adv-x="567" d="M21 149q-42 120 8 277q52 165 174 264q95 77 211 88l57 191h82l-59 -193q40 -8 67.5 -31t38 -54t10.5 -66t-15 -68.5t-38.5 -61t-60 -44.5t-78.5 -17q-19 0 -27 2l-94 -317q50 1 102 29t91.5 68t71.5 79.5t48 67.5l17 28h35q-6 -14 -17 -37t-49.5 -83.5t-81 -109 t-110.5 -93t-140 -54.5l-57 -194h-82l57 192q-119 16 -161 137zM207 271q3 -66 22 -105l97 317q-17 35 -4 80t47 68l24 82q-41 -9 -77.5 -56t-60.5 -112.5t-37.5 -136.5t-10.5 -137zM436 582q11 -25 35 -25q16 0 24 24.5t1.5 57.5t-27.5 53z" />
<glyph unicode="&#xa3;" horiz-adv-x="1509" d="M360 -176q99 83 168.5 238.5t137.5 392.5h-86v71h106q89 314 143 448q117 288 282 379q88 48 194 48q110 0 191 -39t118 -101.5t49.5 -138.5t-12 -151.5t-67.5 -138t-116.5 -101.5t-160.5 -39q-103 0 -167.5 61t-64.5 158q0 91 67.5 124t135.5 -0.5t68 -104.5 q-94 0 -124 -57q-20 -39 4 -72q17 -23 48 -23q63 0 111 56.5t64 137t11.5 160.5t-46 136.5t-109.5 56.5q-40 0 -75 -14t-64 -45t-52.5 -65t-44.5 -88t-37 -100t-33.5 -116t-29 -119.5t-28.5 -127t-28 -124.5h152v-71h-170q-80 -314 -193 -412q59 25 117.5 26.5t102.5 -13.5 t92 -29.5t89 -22.5t91 9t100 63q-60 -95 -113.5 -154.5t-95 -82t-79 -24t-69.5 16t-61 41t-58.5 47.5t-59 39t-65 12t-72.5 -30q-117 -117 -261 -117z" />
<glyph unicode="&#xa4;" horiz-adv-x="858" d="M18 186l148 60q-3 60 39 149q43 95 117 162l-134 55l121 131l76 -141q83 47 176 47q36 0 64 -14l129 149l49 -151l-133 -55q16 -65 -39 -183q-47 -99 -113 -162l129 -53l-121 -131l-73 135q-72 -41 -162 -41q-73 0 -101 35l-122 -143zM319.5 269q6.5 -31 45.5 -31 q43 0 72 33t57 124q30 92 29 127t-40 35q-92 0 -143 -162q-27 -95 -20.5 -126z" />
<glyph unicode="&#xa5;" horiz-adv-x="1439" d="M23 755q55 217 220 402q203 227 487 301q119 31 245 31q191 0 330 -119q-19 -4 -37 -6q-113 -29 -228 -215q-109 -176 -157 -380q-47 -201 5 -277q24 -35 68 -35q105 0 240 211q42 139 77 237t87.5 203.5t107.5 164.5t130.5 88.5t162.5 8.5q-49 -6 -91.5 -54t-74 -120 t-66 -179.5t-61.5 -210t-66.5 -234.5t-76.5 -232h64v-72h-93q-17 -45 -39 -92h70v-72h-104q-96 -179 -220 -278.5t-294 -99.5q-90 0 -162.5 43.5t-101.5 121t12 185.5q40 104 146 138q90 29 171 -8q76 -35 82 -106q5 -55 -37 -118q-63 73 -136 44q-51 -20 -74 -76 q-27 -66 12 -112q40 -47 137 -47q80 0 143.5 81.5t120.5 231.5h-117v72h144l30 92h-112v72h133l41 135q-130 -127 -271 -127q-170 0 -225 150q-52 139 9 348q61 206 195 357q138 157 298 179q-73 31 -172 31q-292 0 -501 -229q-152 -167 -215 -400q-53 -194 -18 -322 q32 -109 115 -110q43 0 64 40q23 42 -6 76q-31 36 -105 36q0 71 69.5 104.5t138.5 0.5t69 -124q0 -94 -79 -156.5t-183 -62.5q-201 0 -280 147q-73 136 -21 342z" />
<glyph unicode="&#xa6;" horiz-adv-x="583" d="M23 -145l206 702h82l-207 -702h-81zM266 709l217 723h82l-217 -723h-82z" />
<glyph unicode="&#xa7;" horiz-adv-x="686" d="M2 238q28 89 106 103t132.5 -38.5t27.5 -126.5q-50 47 -92 15q-32 -23 -31 -64q1 -45 45 -57q5 -1 11 -2q46 -5 79 24.5t42.5 72.5t-7.5 92.5t-61 80.5q-82 56 -115 137t-8 156.5t100 116.5q-24 45 -29 92.5t10.5 90.5t48 76.5t87 53.5t123.5 20q101 0 154.5 -51.5 t31.5 -132.5q-21 -76 -92 -97q-62 -19 -112 15q-56 37 -37 106q1 6 4 13q57 -40 96 -10q28 22 21 55q-16 38 -66 41q-40 0 -69.5 -26t-39 -63t8 -81t63.5 -76q83 -55 114 -136t7 -157t-92 -125q22 -47 23.5 -97t-18 -94.5t-55.5 -80.5t-92 -57t-124 -21q-97 0 -160.5 75 t-34.5 157zM280 605.5q-2 -31.5 17.5 -67t56.5 -61.5l41 -33q18 44 2.5 101t-63.5 90q-19 11 -39 31q-13 -29 -15 -60.5z" />
<glyph unicode="&#xa8;" horiz-adv-x="741" d="M125 1053q0 46 30 75t76 29q42 0 73.5 -29.5t31.5 -74.5q0 -43 -32 -75t-73 -32q-45 0 -75.5 31.5t-30.5 75.5zM367 1053q0 46 30 75t76 29q42 0 73.5 -29.5t31.5 -74.5q0 -43 -32 -75t-73 -32q-45 0 -75.5 31.5t-30.5 75.5z" />
<glyph unicode="&#xa9;" horiz-adv-x="1034" d="M30.5 185q-4.5 100 30.5 214q40 150 135 278t217 201.5t240 73.5q90 0 160 -43t108 -118t46.5 -176t-25.5 -216q-63 -227 -239 -388t-359 -161q-99 0 -170.5 43t-105 117.5t-38 174.5zM84 206.5q0 -89.5 29 -157t93 -106.5t156 -39q162 0 318.5 146t210.5 349 q61 236 -13 374t-241 138q-158 0 -314 -152.5t-210 -359.5q-29 -103 -29 -192.5zM189 399q44 165 160 272q119 109 272 109q114 0 147.5 -86.5t-22.5 -173t-160 -86.5q-77 0 -97 61q-17 51 15 102q36 56 98 48l12 -2q-23 -22 -12 -54t37 -32q22 0 27 40q8 54 -22 90 q-23 28 -62 28q-87 0 -150.5 -149t-57 -298t88.5 -149q50 0 103 28t92 68t71.5 80t48.5 68l17 28h34q-3 -8 -9.5 -21.5t-28.5 -53.5t-46.5 -76t-64 -79.5t-81.5 -75.5t-98 -53.5t-114 -21.5q-137 0 -190 120q-49 111 -8 269z" />
<glyph unicode="&#xaa;" d="M168 718.5q1 36.5 15.5 89t41.5 114.5q27 63 69 114.5t89 83.5t97.5 49.5t99 17.5t88.5 -18q-86 -282 -111 -364q-12 -37 -13.5 -57.5t3 -26.5t14.5 -8q17 -5 44 12.5t44 52.5h21q-32 -85 -88 -128.5t-103 -43.5q-75 0 -80 82q-32 -36 -74.5 -59t-82.5 -23q-24 0 -41 12 t-25.5 38t-7.5 62.5zM318 796q-10 -73 22 -73q25 0 66 31q4 26 12 51l90 299q-8 4 -19 4q-46 0 -102 -107q-57 -108 -69 -205z" />
<glyph unicode="&#xab;" horiz-adv-x="952" d="M145 379l13 47l379 203l14 -45l-266 -228l116 -233l-28 -12zM391 379l12 47l379 203l15 -45l-267 -228l117 -233l-29 -12z" />
<glyph unicode="&#xac;" horiz-adv-x="710" d="M106 379v72h457l-65 -248h-74l45 176h-363z" />
<glyph unicode="&#xad;" horiz-adv-x="600" d="M113 358v72h417v-72h-417z" />
<glyph unicode="&#xae;" horiz-adv-x="1021" d="M30.5 185q-4.5 100 30.5 214q40 150 135 278t217 201.5t240 73.5q90 0 160 -43t108 -118t46.5 -176t-25.5 -216q-63 -227 -239 -388t-359 -161q-99 0 -170.5 43t-105 117.5t-38 174.5zM84 206.5q0 -89.5 29 -157t93 -106.5t156 -39q162 0 318.5 146t210.5 349 q61 236 -13 374t-241 138q-158 0 -314 -152.5t-210 -359.5q-29 -103 -29 -192.5zM188 0l234 780h186l-28 -92l176 117q-11 -72 -2 -113.5t36.5 -57.5t58 -14t62.5 17q-85 -100 -164.5 -137t-130.5 -8t-61 114l-180 -606h-187z" />
<glyph unicode="&#xaf;" horiz-adv-x="600" d="M106 985v72h418v-72h-418z" />
<glyph unicode="&#xb0;" horiz-adv-x="550" d="M104 950q0 64 43 106t109 42q60 0 103.5 -42.5t43.5 -105.5q0 -61 -44 -106t-103 -45q-65 0 -108.5 44.5t-43.5 106.5zM147 948q0 -43 31 -74.5t76 -31.5q41 0 72.5 31.5t31.5 74.5q0 45 -31 75t-73 30q-46 0 -76.5 -29.5t-30.5 -75.5z" />
<glyph unicode="&#xb1;" horiz-adv-x="641" d="M27 12v72h458v-72h-458zM106 379v72h203l51 192h80l-51 -192h176v-72h-196l-52 -195h-79l51 195h-183z" />
<glyph unicode="&#xb2;" horiz-adv-x="757" d="M0 10q227 85 439 326q173 197 258 403q79 191 32 276q-21 37 -67 46q-71 14 -128.5 -2t-92 -53.5t-57.5 -87t-28 -105t-1 -105.5t20 -90t39 -57q-13 -31 -44.5 -53.5t-68.5 -29t-75.5 20t-59.5 87.5q-13 38 -14.5 83.5t8 92.5t31 95t52 91t74 79.5t93.5 62.5t113.5 39 t131.5 8q248 -17 290 -176q38 -141 -93 -350q-124 -199 -341 -368q-97 -74 -198 -130q174 57 215 55q26 -3 60.5 -8.5t50 -7t37.5 0t37.5 11.5t36 29t45.5 51q-39 -94 -83 -154.5t-88 -85.5t-87 -31.5t-89.5 5.5t-85.5 26.5t-85.5 30.5t-79.5 20q-97 -45 -193 -63z" />
<glyph unicode="&#xb3;" horiz-adv-x="745" d="M2 330q5 59 31.5 113t72.5 89q86 63 156.5 50t115 -67.5t38.5 -108.5q-101 43 -180 -26q-63 -54 -74 -139q-11 -93 51 -142q45 -36 121 -36q107 0 186 114q67 98 73 214t-57 158q-27 18 -65 18l25 37q92 2 173 104q74 93 87 197q14 110 -57 146q-17 9 -40 12 q-51 7 -98.5 -19t-75.5 -70.5t-41 -93.5t1.5 -93t54.5 -64q-15 -40 -72.5 -56t-117.5 9t-77 90q-28 107 22 196.5t158 137t244 37.5q84 -6 146 -31.5t96 -62.5t48.5 -83.5t8 -95.5t-29 -97.5t-59 -89t-87.5 -71t-108 -43.5q50 -29 80 -74.5t34 -98t-9 -108t-51.5 -106.5 t-91.5 -91.5t-131.5 -64.5t-168.5 -24q-86 0 -154 30t-107 77.5t-57.5 107.5t-13.5 119z" />
<glyph unicode="&#xb4;" horiz-adv-x="622" d="M111 993l352 199v-137l-344 -90z" />
<glyph unicode="&#xb6;" horiz-adv-x="669" d="M2 -145l242 790q-41 24 -66.5 63t-25.5 83q0 69 58 119.5t130 50.5h344v-72h-78l-315 -1034h-82l315 1034h-125l-315 -1034h-82z" />
<glyph unicode="&#xb7;" horiz-adv-x="397" d="M90 391q0 43 27.5 70.5t68.5 27.5t70 -28t29 -70q0 -38 -29.5 -67t-69.5 -29q-41 0 -68.5 28.5t-27.5 67.5z" />
<glyph unicode="&#xb8;" horiz-adv-x="313" d="M27 -250q21 0 47.5 5t53.5 18t39.5 31.5t-2 50t-63.5 69.5l2 2q15 22 31.5 52.5t25.5 50.5l9 20l49 -12l-55 -107q65 -40 97.5 -80.5t28.5 -70t-34 -50.5t-90 -22.5t-139 14.5v29z" />
<glyph unicode="&#xb9;" horiz-adv-x="405" d="M0 0l231 780h-55l162 357h184l-336 -1137h-186z" />
<glyph unicode="&#xba;" horiz-adv-x="595" d="M180 1083q46 161 158.5 273t226.5 112q61 0 102 -19.5t61.5 -53.5t25 -84t-3.5 -105t-27 -123q-51 -160 -163 -272.5t-222 -112.5q-268 0 -158 385zM346 912q-14 -128 25 -128q44 0 104 145q65 157 85 305q17 134 -28 134q-51 0 -111 -153.5t-75 -302.5z" />
<glyph unicode="&#xbb;" horiz-adv-x="919" d="M127 158l266 227l-117 233l29 13l227 -269l-12 -47l-379 -202zM373 158l266 227l-117 233l29 13l227 -269l-12 -47l-379 -202z" />
<glyph unicode="&#xbc;" horiz-adv-x="1523" d="M12 0l232 780h-56l162 357h185l-336 -1137h-187zM242 0l694 1137h100l-692 -1137h-102zM690 334q19 57 37.5 108t45 116.5t54.5 121t63 117t74 109.5t84 93.5t96.5 75t107 47t120.5 16t133 -23.5l-205 -690h58v-90h-84l-98 -334h-185l99 334h-400zM918 424h198l195 668 q-55 -27 -105.5 -80.5t-87 -112.5t-73.5 -142t-61 -147t-54 -151q-8 -23 -12 -35z" />
<glyph unicode="&#xbd;" horiz-adv-x="1724" d="M14 0l232 780h-56l162 357h185l-336 -1137h-187zM227 0l695 1137h100l-692 -1137h-103zM719 10q227 85 438 326q174 197 259 403q78 191 31 276q-21 37 -67 46q-71 14 -128.5 -2t-92 -53.5t-57 -87t-28 -105t-1 -105.5t20.5 -90t39 -57q-13 -31 -44.5 -53.5t-68.5 -29 t-75.5 20t-59.5 87.5q-13 38 -14.5 83.5t8 92.5t31 95t52 91t74 79.5t93.5 62.5t113.5 39t131.5 8q248 -17 290 -176q38 -141 -93 -350q-124 -199 -341 -368q-97 -74 -198 -130q174 57 215 55q26 -3 60.5 -8.5t49.5 -7t37.5 0t37.5 11.5t35.5 29t45.5 51q-39 -94 -83 -154.5 t-88 -85.5t-87 -31.5t-89.5 5.5t-85.5 26.5t-85.5 30.5t-79.5 20q-98 -45 -192 -63z" />
<glyph unicode="&#xbe;" horiz-adv-x="1980" d="M7 330q5 59 31.5 113t72.5 89q86 63 156.5 49.5t114.5 -67.5t38 -108q-101 43 -180 -26q-63 -54 -74 -139q-11 -93 51 -142q45 -36 121 -36q107 0 186 114q67 98 73 214t-57 158q-27 18 -65 18l25 37q92 2 174 104q73 93 87 197q14 110 -57 146q-17 9 -40 12 q-51 7 -98.5 -19t-75.5 -70.5t-41 -93.5t1 -93t54 -64q-15 -40 -72 -56t-117 9t-77 90q-28 107 22 196.5t158 137t244 37.5q84 -6 146 -31.5t95.5 -62.5t48.5 -83.5t8.5 -95.5t-29.5 -97.5t-59.5 -89t-87.5 -71t-108 -43.5q50 -29 80 -74.5t34 -98t-9 -108t-51.5 -106.5 t-91.5 -91.5t-131.5 -64.5t-168.5 -24q-86 0 -154 30t-106.5 77.5t-57 107.5t-13.5 119zM688 0l694 1137h101l-692 -1137h-103zM1145 334q19 57 37.5 108t45 116.5t54.5 121t63 117t74 109.5t84 93.5t96.5 75t107 47t120.5 16t133 -23.5l-205 -690h57v-90h-83l-99 -334h-184 l98 334h-399zM1372 424h199l194 668q-55 -27 -105.5 -80.5t-87 -112.5t-73.5 -142t-61 -147t-54 -151q-8 -23 -12 -35z" />
<glyph unicode="&#xbf;" horiz-adv-x="880" d="M21.5 201.5q-17.5 65.5 6.5 139t83 138.5q62 68 147.5 130t160 104t143 81.5t114.5 79.5t57 82h78q-18 -68 -64 -125t-107.5 -101t-125.5 -85.5t-130.5 -97.5t-109.5 -117q-57 -80 -65.5 -164t35 -143.5t127.5 -69.5q103 -16 142 54q33 58 3 133q-31 78 -106 107 q-28 11 -60 13q13 46 59.5 80.5t106 41.5t121.5 -25q55 -31 86.5 -77t36.5 -95t-13.5 -99t-56.5 -90.5t-100 -68.5t-137 -35q-124 -10 -219 16t-145 77t-67.5 116.5zM772 1210q0 38 29 67.5t69 29.5q41 0 69 -29t28 -68q0 -42 -27.5 -70t-69.5 -28q-40 0 -69 28t-29 70z" />
<glyph unicode="&#xc0;" horiz-adv-x="1038" d="M30 565q64 270 234 505q191 264 439 366q147 60 301 53q230 -11 300 -128q49 -82 4 -179q-37 -82 -117 -122q-45 -22 -93 -22t-82 12.5t-45.5 24t-24.5 29.5q47 0 85.5 31.5t52 76.5t9 91t-47 79t-113.5 35q-182 9 -356 -218q-148 -193 -237 -478q-83 -263 -63 -436 q24 -156 123 -160q168 0 351 465l114 395h240q-144 -500 -191 -647q-66 -206 0 -223q24 -7 67 44t81 128h43q-120 -291 -305 -291q-34 0 -61 10.5t-50.5 34.5t-33.5 70.5t-3 111.5q-159 -252 -352 -252q-192 0 -262 170q-69 164 -7 424zM834 1632v137l352 -198l-8 -29z" />
<glyph unicode="&#xc1;" horiz-adv-x="1038" d="M30 565q64 270 234 505q191 264 439 366q147 60 301 53q230 -11 300 -128q49 -82 4 -179q-37 -82 -117 -122q-45 -22 -93 -22t-82 12.5t-45.5 24t-24.5 29.5q47 0 85.5 31.5t52 76.5t9 91t-47 79t-113.5 35q-182 9 -356 -218q-148 -193 -237 -478q-83 -263 -63 -436 q24 -156 123 -160q168 0 351 465l114 395h240q-144 -500 -191 -647q-66 -206 0 -223q24 -7 67 44t81 128h43q-120 -291 -305 -291q-34 0 -61 10.5t-50.5 34.5t-33.5 70.5t-3 111.5q-159 -252 -352 -252q-192 0 -262 170q-69 164 -7 424zM897 1577l352 199v-138l-344 -90z " />
<glyph unicode="&#xc2;" horiz-adv-x="1038" d="M30 565q64 270 234 505q191 264 439 366q147 60 301 53q230 -11 300 -128q49 -82 4 -179q-37 -82 -117 -122q-45 -22 -93 -22t-82 12.5t-45.5 24t-24.5 29.5q47 0 85.5 31.5t52 76.5t9 91t-47 79t-113.5 35q-182 9 -356 -218q-148 -193 -237 -478q-83 -263 -63 -436 q24 -156 123 -160q168 0 351 465l114 395h240q-144 -500 -191 -647q-66 -206 0 -223q24 -7 67 44t81 128h43q-120 -291 -305 -291q-34 0 -61 10.5t-50.5 34.5t-33.5 70.5t-3 111.5q-159 -252 -352 -252q-192 0 -262 170q-69 164 -7 424zM799 1563l270 209h49l111 -218 l-39 -26l-166 114l-205 -104z" />
<glyph unicode="&#xc3;" horiz-adv-x="1038" d="M30 565q64 270 234 505q191 264 439 366q147 60 301 53q230 -11 300 -128q49 -82 4 -179q-37 -82 -117 -122q-45 -22 -93 -22t-82 12.5t-45.5 24t-24.5 29.5q47 0 85.5 31.5t52 76.5t9 91t-47 79t-113.5 35q-182 9 -356 -218q-148 -193 -237 -478q-83 -263 -63 -436 q24 -156 123 -160q168 0 351 465l114 395h240q-144 -500 -191 -647q-66 -206 0 -223q24 -7 67 44t81 128h43q-120 -291 -305 -291q-34 0 -61 10.5t-50.5 34.5t-33.5 70.5t-3 111.5q-159 -252 -352 -252q-192 0 -262 170q-69 164 -7 424zM805 1604q39 74 97.5 122.5t122 53.5 t116.5 -58q25 -30 52.5 -39.5t49 -2t40 19.5t28.5 24l10 11l35 -29q-64 -75 -124.5 -116t-120.5 -40.5t-103 54.5q-25 32 -52 40t-47 -3t-36.5 -26t-25.5 -29l-9 -15z" />
<glyph unicode="&#xc4;" horiz-adv-x="1038" d="M30 565q64 270 234 505q191 264 439 366q147 60 301 53q230 -11 300 -128q49 -82 4 -179q-37 -82 -117 -122q-45 -22 -93 -22t-82 12.5t-45.5 24t-24.5 29.5q47 0 85.5 31.5t52 76.5t9 91t-47 79t-113.5 35q-182 9 -356 -218q-148 -193 -237 -478q-83 -263 -63 -436 q24 -156 123 -160q168 0 351 465l114 395h240q-144 -500 -191 -647q-66 -206 0 -223q24 -7 67 44t81 128h43q-120 -291 -305 -291q-34 0 -61 10.5t-50.5 34.5t-33.5 70.5t-3 111.5q-159 -252 -352 -252q-192 0 -262 170q-69 164 -7 424zM807 1655q0 46 30 75t76 29 q42 0 73.5 -29.5t31.5 -74.5q0 -43 -32 -75t-73 -32q-45 0 -75.5 31.5t-30.5 75.5zM1049 1655q0 46 30 75t76 29q42 0 73.5 -29.5t31.5 -74.5q0 -43 -32 -75t-73 -32q-45 0 -75.5 31.5t-30.5 75.5z" />
<glyph unicode="&#xc5;" horiz-adv-x="1038" d="M30 565q64 270 234 505q191 264 439 366q147 60 301 53q230 -11 300 -128q49 -82 4 -179q-37 -82 -117 -122q-45 -22 -93 -22t-82 12.5t-45.5 24t-24.5 29.5q47 0 85.5 31.5t52 76.5t9 91t-47 79t-113.5 35q-182 9 -356 -218q-148 -193 -237 -478q-83 -263 -63 -436 q24 -156 123 -160q168 0 351 465l114 395h240q-144 -500 -191 -647q-66 -206 0 -223q24 -7 67 44t81 128h43q-120 -291 -305 -291q-34 0 -61 10.5t-50.5 34.5t-33.5 70.5t-3 111.5q-159 -252 -352 -252q-192 0 -262 170q-69 164 -7 424zM911 1683q0 64 43 106t109 42 q60 0 103.5 -42.5t43.5 -105.5q0 -61 -44 -106t-103 -45q-65 0 -108.5 44.5t-43.5 106.5zM954 1681q0 -43 31 -74.5t76 -31.5q41 0 72.5 31.5t31.5 74.5q0 45 -31 75t-73 30q-46 0 -76.5 -29.5t-30.5 -75.5z" />
<glyph unicode="&#xc6;" horiz-adv-x="1763" d="M33 30q-66 174 0 453q69 290 243 544q193 281 437 395q158 74 321 67q200 -8 283 -105q210 147 479 101q100 -16 167.5 -63.5t92.5 -106.5t16.5 -122t-48.5 -113.5t-116.5 -79t-172.5 -19.5q-45 4 -81 21.5t-55 39.5t-31.5 44t-15.5 36l-4 15q106 -32 189 25 q64 43 70 107q8 71 -65 111q-29 15 -69 23q-94 20 -179 -32t-127 -145t-48.5 -196t56.5 -197.5t186 -138.5l-5 -20q-262 0 -416 -161q-112 -118 -130 -275q-15 -142 54 -233q63 -85 175 -85q59 0 123 25.5t118 66t105.5 89.5t91.5 98.5t70.5 90t46.5 66.5l16 25h58 q-6 -12 -17.5 -32t-50 -77.5t-81 -110.5t-108.5 -117t-134 -110.5t-156 -78t-176 -31.5q-98 0 -174.5 36t-122.5 96t-68.5 135.5t-19.5 158.5q-259 -397 -471 -397q-188 0 -256 177zM271 186q19 -174 118 -180q47 0 107.5 49.5t124 135.5t125.5 183t124.5 213t106.5 202.5 t86 173.5q0 31 10 79q-28 5 -49.5 17.5t-28.5 21t-18 23.5q47 0 85.5 31.5t52 76.5t9 91t-47 79t-113.5 35q-178 9 -357 -231q-156 -209 -256 -521q-92 -287 -79 -479zM987 659q94 58 203 66q-84 43 -113 131q-11 -23 -41 -90t-49 -107z" />
<glyph unicode="&#xc7;" horiz-adv-x="948" d="M36 20q-73 184 4 478q76 289 256 546q189 271 415 384q134 67 266 67q170 0 246 -108q60 -85 35 -194q-24 -108 -118 -168q-89 -56 -210 -44q-44 4 -79 21.5t-53.5 39.5t-30.5 44t-15 36l-4 15q102 -32 190 30q64 45 76 107q13 66 -48 94q-33 16 -85 16q-182 0 -346 -233 q-146 -208 -225 -516q-75 -292 -45 -497q29 -193 146 -215q14 -3 29 -3q58 0 121 25.5t117 66t106 89.5t92 98.5t70.5 90t47.5 66.5l16 25h53q-6 -11 -16.5 -29.5t-46 -72t-74 -103t-99.5 -112t-123.5 -109t-144 -82.5t-162.5 -45l-41 -82q65 -40 97.5 -80.5t28.5 -70 t-34 -50.5t-90 -22.5t-139 14.5v29q21 0 47.5 5t53.5 18t40 31.5t-1.5 50t-63.5 69.5l2 2q40 68 47 82q-231 0 -308 196z" />
<glyph unicode="&#xc8;" horiz-adv-x="993" d="M1 265q12 174 119 301q120 144 310 159q-115 59 -126 198q-12 138 80 283q100 158 271 235q176 79 381 44q100 -16 167.5 -63.5t92.5 -106.5t16.5 -122t-48.5 -113.5t-116.5 -79t-172.5 -19.5q-45 4 -81 21.5t-55 39.5t-31.5 44t-15.5 36l-4 15q106 -32 189 25 q64 43 70 107q8 71 -65 111q-29 15 -69 23q-94 20 -179 -32t-127 -145t-48.5 -196t56.5 -197.5t186 -138.5l-4 -20q-262 0 -417 -161q-112 -118 -129 -275q-16 -142 53 -233q63 -85 175 -85q59 0 123 25.5t118 66t106 89.5t92 98.5t70.5 90t46.5 66.5l16 25h57 q-6 -12 -17.5 -32t-50 -77.5t-81 -110.5t-108.5 -117t-134 -110.5t-156 -78t-176 -31.5q-202 0 -307 145q-89 123 -77 296zM756 1645v137l352 -199l-8 -29z" />
<glyph unicode="&#xc9;" horiz-adv-x="993" d="M1 265q12 174 119 301q120 144 310 159q-115 59 -126 198q-12 138 80 283q100 158 271 235q176 79 381 44q100 -16 167.5 -63.5t92.5 -106.5t16.5 -122t-48.5 -113.5t-116.5 -79t-172.5 -19.5q-45 4 -81 21.5t-55 39.5t-31.5 44t-15.5 36l-4 15q106 -32 189 25 q64 43 70 107q8 71 -65 111q-29 15 -69 23q-94 20 -179 -32t-127 -145t-48.5 -196t56.5 -197.5t186 -138.5l-4 -20q-262 0 -417 -161q-112 -118 -129 -275q-16 -142 53 -233q63 -85 175 -85q59 0 123 25.5t118 66t106 89.5t92 98.5t70.5 90t46.5 66.5l16 25h57 q-6 -12 -17.5 -32t-50 -77.5t-81 -110.5t-108.5 -117t-134 -110.5t-156 -78t-176 -31.5q-202 0 -307 145q-89 123 -77 296zM815 1579l352 199v-138l-344 -90z" />
<glyph unicode="&#xca;" horiz-adv-x="993" d="M1 265q12 174 119 301q120 144 310 159q-115 59 -126 198q-12 138 80 283q100 158 271 235q176 79 381 44q100 -16 167.5 -63.5t92.5 -106.5t16.5 -122t-48.5 -113.5t-116.5 -79t-172.5 -19.5q-45 4 -81 21.5t-55 39.5t-31.5 44t-15.5 36l-4 15q106 -32 189 25 q64 43 70 107q8 71 -65 111q-29 15 -69 23q-94 20 -179 -32t-127 -145t-48.5 -196t56.5 -197.5t186 -138.5l-4 -20q-262 0 -417 -161q-112 -118 -129 -275q-16 -142 53 -233q63 -85 175 -85q59 0 123 25.5t118 66t106 89.5t92 98.5t70.5 90t46.5 66.5l16 25h57 q-6 -12 -17.5 -32t-50 -77.5t-81 -110.5t-108.5 -117t-134 -110.5t-156 -78t-176 -31.5q-202 0 -307 145q-89 123 -77 296zM764 1546l270 209h49l111 -217l-39 -27l-166 115l-205 -104z" />
<glyph unicode="&#xcb;" horiz-adv-x="993" d="M1 265q12 174 119 301q120 144 310 159q-115 59 -126 198q-12 138 80 283q100 158 271 235q176 79 381 44q100 -16 167.5 -63.5t92.5 -106.5t16.5 -122t-48.5 -113.5t-116.5 -79t-172.5 -19.5q-45 4 -81 21.5t-55 39.5t-31.5 44t-15.5 36l-4 15q106 -32 189 25 q64 43 70 107q8 71 -65 111q-29 15 -69 23q-94 20 -179 -32t-127 -145t-48.5 -196t56.5 -197.5t186 -138.5l-4 -20q-262 0 -417 -161q-112 -118 -129 -275q-16 -142 53 -233q63 -85 175 -85q59 0 123 25.5t118 66t106 89.5t92 98.5t70.5 90t46.5 66.5l16 25h57 q-6 -12 -17.5 -32t-50 -77.5t-81 -110.5t-108.5 -117t-134 -110.5t-156 -78t-176 -31.5q-202 0 -307 145q-89 123 -77 296zM791 1649q0 46 30 75t76 29q42 0 73 -29.5t31 -74.5q0 -43 -31.5 -75t-72.5 -32q-45 0 -75.5 31.5t-30.5 75.5zM1032 1649q0 45 30.5 74.5t76.5 29.5 q42 0 73 -29.5t31 -74.5q0 -43 -31.5 -75t-72.5 -32q-45 0 -76 32t-31 75z" />
<glyph unicode="&#xcc;" horiz-adv-x="964" d="M11 758q37 218 186 402q183 224 458 297q118 32 246 32q119 0 222 -30t171 -89q-4 -2 -6 -2q-54 -8 -101 -66.5t-84 -150t-72.5 -207.5t-71.5 -242t-76 -251.5t-91.5 -238t-111.5 -199.5t-142.5 -138t-179.5 -51q-56 0 -103 14t-83.5 45.5t-46 82.5t9.5 124 q21 81 104 109q75 25 142 -4q66 -30 64 -92q-1 -36 -29 -78q-49 42 -93 9q-34 -26 -33 -67q1 -46 53 -58q13 -3 30 -3q51 0 96.5 59t80 156t72.5 222.5t72.5 257.5t82 263t98.5 237t124 180t158 93q-91 39 -256 39q-290 0 -475 -225q-137 -166 -179 -399q-35 -194 13 -324 q41 -113 127 -113q43 0 64 40q22 42 -7 76q-30 36 -104 36q0 71 68.5 104.5t137 0.5t68.5 -124q0 -95 -77.5 -157t-184.5 -62q-201 0 -292 149q-84 137 -49 343zM938 1573v137l352 -199l-8 -28z" />
<glyph unicode="&#xcd;" horiz-adv-x="964" d="M11 758q37 218 186 402q183 224 458 297q118 32 246 32q119 0 222 -30t171 -89q-4 -2 -6 -2q-54 -8 -101 -66.5t-84 -150t-72.5 -207.5t-71.5 -242t-76 -251.5t-91.5 -238t-111.5 -199.5t-142.5 -138t-179.5 -51q-56 0 -103 14t-83.5 45.5t-46 82.5t9.5 124 q21 81 104 109q75 25 142 -4q66 -30 64 -92q-1 -36 -29 -78q-49 42 -93 9q-34 -26 -33 -67q1 -46 53 -58q13 -3 30 -3q51 0 96.5 59t80 156t72.5 222.5t72.5 257.5t82 263t98.5 237t124 180t158 93q-91 39 -256 39q-290 0 -475 -225q-137 -166 -179 -399q-35 -194 13 -324 q41 -113 127 -113q43 0 64 40q22 42 -7 76q-30 36 -104 36q0 71 68.5 104.5t137 0.5t68.5 -124q0 -95 -77.5 -157t-184.5 -62q-201 0 -292 149q-84 137 -49 343zM1059 1559l352 198v-137l-344 -90z" />
<glyph unicode="&#xce;" horiz-adv-x="964" d="M11 758q37 218 186 402q183 224 458 297q118 32 246 32q119 0 222 -30t171 -89q-4 -2 -6 -2q-54 -8 -101 -66.5t-84 -150t-72.5 -207.5t-71.5 -242t-76 -251.5t-91.5 -238t-111.5 -199.5t-142.5 -138t-179.5 -51q-56 0 -103 14t-83.5 45.5t-46 82.5t9.5 124 q21 81 104 109q75 25 142 -4q66 -30 64 -92q-1 -36 -29 -78q-49 42 -93 9q-34 -26 -33 -67q1 -46 53 -58q13 -3 30 -3q51 0 96.5 59t80 156t72.5 222.5t72.5 257.5t82 263t98.5 237t124 180t158 93q-91 39 -256 39q-290 0 -475 -225q-137 -166 -179 -399q-35 -194 13 -324 q41 -113 127 -113q43 0 64 40q22 42 -7 76q-30 36 -104 36q0 71 68.5 104.5t137 0.5t68.5 -124q0 -95 -77.5 -157t-184.5 -62q-201 0 -292 149q-84 137 -49 343zM846 1546l270 209h49l111 -217l-39 -27l-166 115l-205 -104z" />
<glyph unicode="&#xcf;" horiz-adv-x="964" d="M11 758q37 218 186 402q183 224 458 297q118 32 246 32q119 0 222 -30t171 -89q-4 -2 -6 -2q-54 -8 -101 -66.5t-84 -150t-72.5 -207.5t-71.5 -242t-76 -251.5t-91.5 -238t-111.5 -199.5t-142.5 -138t-179.5 -51q-56 0 -103 14t-83.5 45.5t-46 82.5t9.5 124 q21 81 104 109q75 25 142 -4q66 -30 64 -92q-1 -36 -29 -78q-49 42 -93 9q-34 -26 -33 -67q1 -46 53 -58q13 -3 30 -3q51 0 96.5 59t80 156t72.5 222.5t72.5 257.5t82 263t98.5 237t124 180t158 93q-91 39 -256 39q-290 0 -475 -225q-137 -166 -179 -399q-35 -194 13 -324 q41 -113 127 -113q43 0 64 40q22 42 -7 76q-30 36 -104 36q0 71 68.5 104.5t137 0.5t68.5 -124q0 -95 -77.5 -157t-184.5 -62q-201 0 -292 149q-84 137 -49 343zM948 1620q0 45 30.5 74.5t76.5 29.5q42 0 73 -29.5t31 -74.5q0 -43 -31.5 -75t-72.5 -32q-45 0 -76 32t-31 75z M1190 1620q0 46 30 75t76 29q42 0 73.5 -29.5t31.5 -74.5q0 -43 -32 -75t-73 -32q-45 0 -75.5 31.5t-30.5 75.5z" />
<glyph unicode="&#xd0;" horiz-adv-x="1617" d="M11 758q37 218 186 402q183 224 458 297q118 32 246 32q204 0 365 -66q253 -108 336 -372q74 -237 -4 -530q-71 -266 -235 -462q-171 -204 -372 -242q-141 -27 -276 36q-72 38 -115 79q-118 -108 -262 -108q-56 0 -101.5 14t-82 45.5t-46 82.5t6.5 124q24 81 109 109 q77 26 144 -5t62 -95q-3 -35 -29 -74q-49 42 -93 9q-34 -26 -35 -67q0 -46 50 -58q13 -3 29 -3q24 0 46 11t42.5 35t38.5 51.5t37.5 71t34.5 81t34.5 96t33.5 101.5t35.5 109.5t35.5 110.5h-51v72h76q26 75 50 136.5t54.5 127.5t61.5 117t69.5 97.5t79 76.5t89.5 47t102 15 l-21 18q-164 123 -362 123q-288 0 -460 -220q-128 -164 -157 -396q-23 -193 32 -322q47 -113 134 -113q43 0 64 40q22 41 -7 76q-31 36 -106 36q0 71 69 104.5t138 0.5t69 -124q0 -95 -77.5 -157t-184.5 -62q-201 0 -292 149q-84 137 -49 343zM655 -10q38 -35 93 -62 q173 -90 340 45q143 116 233 351q97 252 82 502q-15 267 -156 411q-43 -21 -81 -72.5t-72.5 -131.5t-62.5 -158t-64 -189q-8 -27 -13 -41h121v-72h-143q-65 -195 -129.5 -339.5t-147.5 -243.5z" />
<glyph unicode="&#xd1;" horiz-adv-x="1505" d="M12 759q37 218 187 402q183 224 457 297q116 31 243 31q118 0 192 -23.5t116.5 -80.5t56.5 -139.5t10 -213.5q-4 -117 -37 -799q87 193 166 644q22 124 33.5 184.5t37 159t49.5 142.5t65.5 96.5t90.5 62.5t119 -0.5t156 -55.5q-78 -28 -145.5 -99t-118 -166.5t-96 -212 t-84.5 -238t-79 -241t-84.5 -225t-94.5 -186t-116 -127.5t-143 -47l62 1366q-57 -79 -105.5 -203.5t-82 -254.5t-68 -272.5t-73 -268t-87 -228.5t-120.5 -167t-163 -72q-55 -5 -103.5 8.5t-83.5 46t-47 85.5t7 126q23 81 107 109q75 25 142 -4q67 -30 65 -92q-1 -36 -29 -78 q-49 42 -93 6q-34 -27 -34 -69q-1 -44 42 -52q12 -2 27 0q69 8 125.5 81t96.5 186.5t76.5 252t74.5 286.5t80.5 279.5t105 241.5t138.5 164q-76 12 -154 12q-290 0 -475 -225q-137 -166 -179 -399q-35 -194 13 -324q41 -113 127 -113q43 0 64 40q22 42 -7 76q-30 36 -104 36 q0 71 68.5 104.5t137 0.5t68.5 -124q0 -94 -77 -156.5t-183 -62.5q-202 0 -293 150q-83 137 -47 343zM1135 1552q39 74 97.5 122.5t121.5 54t116 -57.5q25 -30 52.5 -39.5t49.5 -2t40.5 19t28.5 23.5l10 11l35 -28q-64 -75 -125 -116.5t-121 -41t-103 54.5q-25 32 -52 40 t-47 -2.5t-36.5 -25.5t-25.5 -30l-9 -14z" />
<glyph unicode="&#xd2;" horiz-adv-x="1142" d="M5.5 164q-11.5 102 9.5 229.5t73 263.5q87 236 217.5 423.5t297 301t337.5 113.5q107 0 181 -66t104 -178t14.5 -267.5t-80.5 -326.5q-67 -174 -159.5 -324.5t-201.5 -264.5t-236.5 -179t-254.5 -65q-86 0 -151.5 42t-102 119t-48 179zM263.5 146.5 q5.5 -100.5 45.5 -156.5t113 -56q96 0 188 99.5t163 257.5t128 366q44 155 64.5 284t16 230t-44 157t-112.5 56q-96 0 -189 -99.5t-165.5 -259t-130.5 -368.5q-43 -153 -62.5 -281.5t-14 -229zM784 1610v137l353 -199l-9 -28z" />
<glyph unicode="&#xd3;" horiz-adv-x="1142" d="M5.5 164q-11.5 102 9.5 229.5t73 263.5q87 236 217.5 423.5t297 301t337.5 113.5q107 0 181 -66t104 -178t14.5 -267.5t-80.5 -326.5q-67 -174 -159.5 -324.5t-201.5 -264.5t-236.5 -179t-254.5 -65q-86 0 -151.5 42t-102 119t-48 179zM263.5 146.5 q5.5 -100.5 45.5 -156.5t113 -56q96 0 188 99.5t163 257.5t128 366q44 155 64.5 284t16 230t-44 157t-112.5 56q-96 0 -189 -99.5t-165.5 -259t-130.5 -368.5q-43 -153 -62.5 -281.5t-14 -229zM838 1579l352 199v-138l-344 -90z" />
<glyph unicode="&#xd4;" horiz-adv-x="1142" d="M5.5 164q-11.5 102 9.5 229.5t73 263.5q87 236 217.5 423.5t297 301t337.5 113.5q107 0 181 -66t104 -178t14.5 -267.5t-80.5 -326.5q-67 -174 -159.5 -324.5t-201.5 -264.5t-236.5 -179t-254.5 -65q-86 0 -151.5 42t-102 119t-48 179zM263.5 146.5 q5.5 -100.5 45.5 -156.5t113 -56q96 0 188 99.5t163 257.5t128 366q44 155 64.5 284t16 230t-44 157t-112.5 56q-96 0 -189 -99.5t-165.5 -259t-130.5 -368.5q-43 -153 -62.5 -281.5t-14 -229zM739 1563l271 209h49l110 -218l-39 -26l-165 114l-205 -104z" />
<glyph unicode="&#xd5;" horiz-adv-x="1142" d="M5.5 164q-11.5 102 9.5 229.5t73 263.5q87 236 217.5 423.5t297 301t337.5 113.5q107 0 181 -66t104 -178t14.5 -267.5t-80.5 -326.5q-67 -174 -159.5 -324.5t-201.5 -264.5t-236.5 -179t-254.5 -65q-86 0 -151.5 42t-102 119t-48 179zM263.5 146.5 q5.5 -100.5 45.5 -156.5t113 -56q96 0 188 99.5t163 257.5t128 366q44 155 64.5 284t16 230t-44 157t-112.5 56q-96 0 -189 -99.5t-165.5 -259t-130.5 -368.5q-43 -153 -62.5 -281.5t-14 -229zM760 1614q39 74 97.5 122.5t122 54t116.5 -57.5q25 -30 52.5 -39.5t49 -2t40 19 t28.5 23.5l10 11l35 -29q-64 -75 -124.5 -116t-120.5 -40.5t-103 54.5q-25 32 -52 40t-47 -3t-36.5 -26t-25.5 -29l-9 -15z" />
<glyph unicode="&#xd6;" horiz-adv-x="1142" d="M5.5 164q-11.5 102 9.5 229.5t73 263.5q87 236 217.5 423.5t297 301t337.5 113.5q107 0 181 -66t104 -178t14.5 -267.5t-80.5 -326.5q-67 -174 -159.5 -324.5t-201.5 -264.5t-236.5 -179t-254.5 -65q-86 0 -151.5 42t-102 119t-48 179zM263.5 146.5 q5.5 -100.5 45.5 -156.5t113 -56q96 0 188 99.5t163 257.5t128 366q44 155 64.5 284t16 230t-44 157t-112.5 56q-96 0 -189 -99.5t-165.5 -259t-130.5 -368.5q-43 -153 -62.5 -281.5t-14 -229zM750 1649q0 46 30 75t76 29q42 0 73.5 -29.5t31.5 -74.5q0 -43 -32 -75t-73 -32 q-45 0 -75.5 31.5t-30.5 75.5zM991 1649q0 45 30.5 74.5t76.5 29.5q42 0 73 -29.5t31 -74.5q0 -43 -31.5 -75t-72.5 -32q-45 0 -76 32t-31 75z" />
<glyph unicode="&#xd7;" horiz-adv-x="673" d="M88 299l211 178l-57 148l69 39l51 -134l185 158l35 -63l-193 -164l66 -166l-68 -41l-61 154l-201 -170z" />
<glyph unicode="&#xd8;" horiz-adv-x="1142" d="M-12 -172l88 121q-49 73 -65.5 180t2.5 244t75 284q87 236 217.5 423.5t297 301t337.5 113.5q124 0 205 -90l63 88h101l-117 -158q60 -111 52 -291.5t-85 -386.5q-67 -174 -159.5 -324.5t-201.5 -264.5t-236.5 -179t-254.5 -65q-102 0 -176 61l-41 -57h-102zM262 201 l719 981q-8 96 -47 149t-109 53q-96 0 -189 -99.5t-165.5 -259t-130.5 -368.5q-78 -277 -78 -456zM272 78q32 -144 150 -144q96 0 188 99.5t163 257.5t128 366q65 234 78 385z" />
<glyph unicode="&#xd9;" horiz-adv-x="1568" d="M22 755q55 217 219 401q203 228 487 302q119 31 245 31q264 0 395 -119q-10 -2 -22 -4q-108 -27 -249 -287q-140 -261 -234 -592q-93 -328 -67 -473q15 -80 68 -80q57 0 116 58.5t111 157.5t91 192t75 199l273 934h233q-280 -990 -327 -1137q-23 -73 -30 -124t0 -74 t24 -25q37 -7 73.5 39t79.5 133h43q-120 -291 -305 -291q-137 0 -147 145q-173 -317 -396 -317q-155 0 -199 183q-45 188 37 495q82 304 239 546q164 253 337 315q20 7 39 11q-94 39 -258 39q-292 0 -501 -229q-152 -167 -215 -400q-52 -194 -17 -322q32 -109 116 -110 q42 0 63 40q22 42 -7 76q-31 36 -105 36q0 71 69.5 104.5t138.5 0.5t69 -124q0 -94 -79 -156.5t-183 -62.5q-201 0 -280 147q-73 136 -20 342zM1135 1563v137l352 -199l-8 -28z" />
<glyph unicode="&#xda;" horiz-adv-x="1568" d="M22 755q55 217 219 401q203 228 487 302q119 31 245 31q264 0 395 -119q-10 -2 -22 -4q-108 -26 -248 -285.5t-235 -590.5q-93 -329 -67 -475q15 -81 68 -81q57 0 116 58.5t111 157.5t91 192t75 199l273 934h233q-280 -990 -327 -1137q-23 -73 -30 -124t0 -74t24 -25 q37 -7 73.5 39t79.5 133h43q-120 -291 -305 -291q-137 0 -147 145q-173 -317 -396 -317q-155 0 -199 183q-45 188 37 495q82 304 239 546q164 253 337 315q20 7 39 11q-94 39 -258 39q-292 0 -501 -229q-152 -167 -215 -400q-52 -194 -17 -322q32 -109 116 -110q42 0 63 40 q22 42 -7 76q-31 36 -105 36q0 71 69.5 104.5t138.5 0.5t69 -124q0 -94 -79 -156.5t-183 -62.5q-201 0 -280 147q-73 136 -20 342zM1325 1518l352 198v-137l-344 -90z" />
<glyph unicode="&#xdb;" horiz-adv-x="1568" d="M22 755q55 217 219 401q203 228 487 302q119 31 245 31q264 0 395 -119q-10 -2 -22 -4q-108 -27 -249 -287q-140 -261 -234 -592q-93 -328 -67 -473q15 -80 68 -80q57 0 116 58.5t111 157.5t91 192t75 199l273 934h233q-280 -990 -327 -1137q-23 -73 -30 -124t0 -74 t24 -25q37 -7 73.5 39t79.5 133h43q-120 -291 -305 -291q-137 0 -147 145q-173 -317 -396 -317q-155 0 -199 183q-45 188 37 495q82 304 239 546q164 253 337 315q20 7 39 11q-94 39 -258 39q-292 0 -501 -229q-152 -167 -215 -400q-52 -194 -17 -322q32 -109 116 -110 q42 0 63 40q22 42 -7 76q-31 36 -105 36q0 71 69.5 104.5t138.5 0.5t69 -124q0 -94 -79 -156.5t-183 -62.5q-201 0 -280 147q-73 136 -20 342zM1251 1559l271 208h49l110 -217l-39 -26l-165 114l-205 -104z" />
<glyph unicode="&#xdc;" horiz-adv-x="1568" d="M22 755q55 217 219 401q203 228 487 302q119 31 245 31q264 0 395 -119q-10 -2 -22 -4q-108 -27 -249 -287q-140 -261 -234 -592q-93 -328 -67 -473q15 -80 68 -80q57 0 116 58.5t111 157.5t91 192t75 199l273 934h233q-280 -990 -327 -1137q-23 -73 -30 -124t0 -74 t24 -25q37 -7 73.5 39t79.5 133h43q-120 -291 -305 -291q-137 0 -147 145q-173 -317 -396 -317q-155 0 -199 183q-45 188 37 495q82 304 239 546q164 253 337 315q20 7 39 11q-94 39 -258 39q-292 0 -501 -229q-152 -167 -215 -400q-52 -194 -17 -322q32 -109 116 -110 q42 0 63 40q22 42 -7 76q-31 36 -105 36q0 71 69.5 104.5t138.5 0.5t69 -124q0 -94 -79 -156.5t-183 -62.5q-201 0 -280 147q-73 136 -20 342zM1221 1630q0 46 30 75.5t76 29.5q42 0 73.5 -30t31.5 -75q0 -42 -32 -74t-73 -32q-45 0 -75.5 31.5t-30.5 74.5zM1462 1630 q0 46 30.5 75.5t76.5 29.5q42 0 73 -30t31 -75q0 -43 -31.5 -74.5t-72.5 -31.5q-45 0 -76 31.5t-31 74.5z" />
<glyph unicode="&#xdd;" horiz-adv-x="1439" d="M23 755q55 217 220 402q203 227 487 301q119 31 245 31q191 0 330 -119q-19 -4 -37 -6q-113 -29 -228 -215q-109 -176 -157 -380q-47 -201 5 -277q24 -35 68 -35q105 0 240 211q42 139 77 237t87.5 203.5t107.5 164.5t130.5 88.5t162.5 8.5q-34 -4 -64 -25t-57.5 -68 t-47.5 -89t-46.5 -124t-41.5 -133.5t-44 -154.5q-30 -106 -46 -161.5t-49 -159t-57 -162.5t-64 -146.5t-77 -139t-89 -112t-105.5 -93t-121 -54.5t-142.5 -22q-90 0 -162.5 43.5t-101.5 121t12 185.5q40 104 146 138q90 29 171 -8q76 -35 82 -106q5 -55 -37 -118 q-63 73 -136 44q-51 -20 -74 -76q-27 -66 12 -112q40 -47 137 -47q44 0 83 23.5t74 77t62 105.5t59 144.5t52 156.5t53 177q-130 -127 -271 -127q-170 0 -225 150q-52 139 9 348q61 206 195 357q138 157 298 179q-73 31 -172 31q-292 0 -501 -229q-152 -167 -215 -400 q-53 -194 -18 -322q32 -109 115 -110q43 0 64 40q23 42 -6 76q-31 36 -105 36q0 71 69.5 104.5t138.5 0.5t69 -124q0 -94 -79 -156.5t-183 -62.5q-201 0 -280 147q-73 136 -21 342zM1337 1458l353 199v-137l-344 -90z" />
<glyph unicode="&#xde;" horiz-adv-x="1398" d="M10 759q36 218 186 402q181 223 455 296q118 32 246 32q259 0 395 -119q-4 -2 -6 -2q-108 -16 -196 -244q103 -31 176.5 -86t109 -121t46 -141.5t-6.5 -148.5t-55.5 -140t-93 -117.5t-126 -81t-149.5 -30.5q-82 0 -168 33q-42 -105 -86.5 -185t-101.5 -146t-127.5 -101 t-151.5 -35q-45 0 -84 9t-73 28.5t-53.5 50.5t-25.5 75.5t11 102.5q22 81 106 109q75 25 142 -4.5t64 -91.5q-2 -36 -31 -78q-49 42 -93 9q-33 -26 -32 -67q1 -46 52 -58q13 -3 30 -3q45 0 86 47t74 126.5t64.5 183.5t64 221t67.5 235t78.5 228.5t93 199t116 149.5t142.5 78 q-91 39 -258 39q-290 0 -475 -225q-137 -166 -178 -401q-35 -193 13 -323q41 -112 126 -112q43 0 66 40q23 42 -5 76q-28 36 -102 36q0 71 68.5 104.5t137 0.5t68.5 -124q0 -94 -78.5 -156.5t-181.5 -62.5q-203 0 -296 150q-84 137 -50 343zM854 375q80 -45 143 -45 q52 0 98 39t76.5 100.5t42 140.5t2 156.5t-50 151t-108.5 120.5q-29 -86 -95 -315t-108 -348z" />
<glyph unicode="&#xdf;" horiz-adv-x="575" d="M-90 -70q211 718 301 1012q43 144 112.5 233t146 116.5t159.5 6.5q64 -17 99.5 -63t39.5 -105.5t-14 -128t-54 -130.5t-88.5 -113.5t-109.5 -75.5q39 -10 52.5 -45t5 -82.5t-27 -103.5t-40 -109.5t-36.5 -97t-14 -70.5t25 -27q27 0 59 22t56 69h32q-47 -116 -120.5 -174 t-135.5 -58q-32 0 -54.5 10.5t-33 31.5t-15 45t0.5 59.5t11 66t20 74t24.5 73.5t26.5 74q19 53 28 79.5t19 61.5t8.5 52t-12.5 22q-28 12 -68 9l-213 -734h-190zM328 713q31 -8 59 -8q20 0 46.5 28t52 72.5t50.5 99.5t43 110.5t28.5 103t7 80t-22.5 38.5q-48 16 -94 -45.5 t-78 -163.5q-36 -116 -92 -315z" />
<glyph unicode="&#xe0;" d="M-10.5 156q1.5 49 21 119t55.5 153q37 85 93 154t119 112.5t130.5 68t132 24t118.5 -24.5q-114 -381 -147 -490q-16 -49 -18.5 -77t3.5 -36.5t19 -11.5q24 -7 60 17.5t59 73.5h29q-45 -116 -118.5 -174t-137.5 -58q-43 0 -73.5 25t-33.5 84q-46 -47 -103 -78t-110 -31 q-32 0 -54.5 16t-34 50.5t-10 83.5zM194 288q-19 -121 27 -126q32 0 86 43q4 20 19 67l120 404q-12 4 -24 4q-60 0 -132 -132q-71 -129 -96 -260zM352 1055v137l353 -199l-9 -28z" />
<glyph unicode="&#xe1;" d="M-10.5 156q1.5 49 21 119t55.5 153q37 85 93 154t119 112.5t130.5 68t132 24t118.5 -24.5q-114 -381 -147 -490q-16 -49 -18.5 -77t3.5 -36.5t19 -11.5q24 -7 60 17.5t59 73.5h29q-45 -116 -118.5 -174t-137.5 -58q-43 0 -73.5 25t-33.5 84q-46 -47 -103 -78t-110 -31 q-32 0 -54.5 16t-34 50.5t-10 83.5zM194 288q-19 -121 27 -126q32 0 86 43q4 20 19 67l120 404q-12 4 -24 4q-60 0 -132 -132q-71 -129 -96 -260zM395 993l353 199v-137l-345 -90z" />
<glyph unicode="&#xe2;" d="M-10.5 156q1.5 49 21 119t55.5 153q37 85 93 154t119 112.5t130.5 68t132 24t118.5 -24.5q-114 -381 -147 -490q-16 -49 -18.5 -77t3.5 -36.5t19 -11.5q24 -7 60 17.5t59 73.5h29q-45 -116 -118.5 -174t-137.5 -58q-43 0 -73.5 25t-33.5 84q-46 -47 -103 -78t-110 -31 q-32 0 -54.5 16t-34 50.5t-10 83.5zM194 288q-19 -121 27 -126q32 0 86 43q4 20 19 67l120 404q-12 4 -24 4q-60 0 -132 -132q-71 -129 -96 -260zM301 979l270 209h50l110 -217l-39 -27l-166 115l-204 -105z" />
<glyph unicode="&#xe3;" d="M-10.5 156q1.5 49 21 119t55.5 153q37 85 93 154t119 112.5t130.5 68t132 24t118.5 -24.5q-114 -381 -147 -490q-16 -49 -18.5 -77t3.5 -36.5t19 -11.5q24 -7 60 17.5t59 73.5h29q-45 -116 -118.5 -174t-137.5 -58q-43 0 -73.5 25t-33.5 84q-46 -47 -103 -78t-110 -31 q-32 0 -54.5 16t-34 50.5t-10 83.5zM194 288q-19 -121 27 -126q32 0 86 43q4 20 19 67l120 404q-12 4 -24 4q-60 0 -132 -132q-71 -129 -96 -260zM248 1006q39 74 97.5 122.5t122 53.5t116.5 -58q25 -30 52.5 -39.5t49 -2t40 19.5t28.5 24l10 11l35 -29q-64 -75 -124.5 -116 t-120.5 -40.5t-103 54.5q-25 32 -52 40t-47 -3t-36.5 -26t-25.5 -29l-9 -15z" />
<glyph unicode="&#xe4;" d="M-10.5 156q1.5 49 21 119t55.5 153q37 85 93 154t119 112.5t130.5 68t132 24t118.5 -24.5q-114 -381 -147 -490q-16 -49 -18.5 -77t3.5 -36.5t19 -11.5q24 -7 60 17.5t59 73.5h29q-45 -116 -118.5 -174t-137.5 -58q-43 0 -73.5 25t-33.5 84q-46 -47 -103 -78t-110 -31 q-32 0 -54.5 16t-34 50.5t-10 83.5zM194 288q-19 -121 27 -126q32 0 86 43q4 20 19 67l120 404q-12 4 -24 4q-60 0 -132 -132q-71 -129 -96 -260zM311 1053q0 45 30.5 74.5t76.5 29.5q42 0 73 -29.5t31 -74.5q0 -43 -31.5 -75t-72.5 -32q-45 0 -76 32t-31 75zM553 1053 q0 46 30 75t76 29q42 0 73.5 -29.5t31.5 -74.5q0 -43 -32 -75t-73 -32q-45 0 -75.5 31.5t-30.5 75.5z" />
<glyph unicode="&#xe5;" d="M-10.5 156q1.5 49 21 119t55.5 153q37 85 93 154t119 112.5t130.5 68t132 24t118.5 -24.5q-114 -381 -147 -490q-16 -49 -18.5 -77t3.5 -36.5t19 -11.5q24 -7 60 17.5t59 73.5h29q-45 -116 -118.5 -174t-137.5 -58q-43 0 -73.5 25t-33.5 84q-46 -47 -103 -78t-110 -31 q-32 0 -54.5 16t-34 50.5t-10 83.5zM194 288q-19 -121 27 -126q32 0 86 43q4 20 19 67l120 404q-12 4 -24 4q-60 0 -132 -132q-71 -129 -96 -260zM393 1075q0 64 43 106t109 42q60 0 103.5 -42.5t43.5 -105.5q0 -61 -44 -106t-103 -45q-65 0 -108.5 44.5t-43.5 106.5z M436 1073q0 -43 31 -74.5t76 -31.5q41 0 72.5 31.5t31.5 74.5q0 45 -31 75t-73 30q-46 0 -76.5 -29.5t-30.5 -75.5z" />
<glyph unicode="&#xe6;" horiz-adv-x="931" d="M-10.5 156q1.5 49 21 119t55.5 153q37 84 95 154.5t125 115.5t136.5 69t136 21t117.5 -34q70 26 139 26q101 0 127 -87q25 -83 -29 -190q-56 -114 -161 -170q-86 -46 -183 -34q-14 -184 88 -184q51 0 104 28.5t92.5 69t72 81t48.5 68.5l17 29h33q-7 -15 -19.5 -41 t-55.5 -91.5t-90.5 -116t-122.5 -91.5t-154 -41q-87 0 -139 47.5t-70 128.5q-48 -67 -134 -123.5t-151 -56.5q-32 0 -54.5 16t-34 50.5t-10 83.5zM197 299q-21 -129 24 -137q17 0 53 21.5t64 42.5l27 22v2q-3 86 27 179.5t87 170.5q12 96 -53 96q-58 0 -130 -129 q-72 -130 -99 -268zM578 367q69 -24 140 83q58 88 75 188q13 83 -21 85q-52 0 -111 -112.5t-83 -243.5z" />
<glyph unicode="&#xe7;" horiz-adv-x="567" d="M21 152q-41 122 10 279q54 164 176 261q110 88 246 88q114 0 147.5 -86.5t-22.5 -173t-160 -86.5q-77 0 -97 61q-17 51 15 102q36 56 98 48l12 -2q-23 -22 -12 -54t37 -32q22 0 27 40q8 54 -22 90q-23 28 -62 28q-87 0 -150.5 -149t-57 -298t88.5 -149q50 0 103 28t92 68 t71.5 80t48.5 68l17 28h35q-3 -8 -9.5 -21.5t-28 -52t-45.5 -74t-62.5 -79t-79.5 -75t-95.5 -54.5t-110.5 -25l-34 -65q108 -67 123.5 -129t-56 -83t-205.5 3v28q21 0 47.5 5t53.5 18t40 32t-1.5 50.5t-63.5 69.5l2 2q35 58 41 71q-117 19 -157 140z" />
<glyph unicode="&#xe8;" horiz-adv-x="567" d="M23 399q44 165 160 272q119 109 272 109q101 0 127 -87q25 -83 -29 -190q-56 -114 -161 -170q-86 -46 -183 -34q-14 -184 88 -184q51 0 104 28.5t92.5 69t72 81t48.5 68.5l17 29h33q-3 -8 -9.5 -21.5t-29 -53.5t-47.5 -76t-64.5 -79.5t-81.5 -75.5t-98 -53.5t-113 -21.5 q-137 0 -190 120q-49 111 -8 269zM217 367q69 -24 140 83q58 88 76 188q13 83 -21 85q-52 0 -111.5 -113t-83.5 -243zM274 1014v137l353 -199l-9 -28z" />
<glyph unicode="&#xe9;" horiz-adv-x="567" d="M23 399q44 165 160 272q119 109 272 109q101 0 127 -87q25 -83 -29 -190q-56 -114 -161 -170q-86 -46 -183 -34q-14 -184 88 -184q51 0 104 28.5t92.5 69t72 81t48.5 68.5l17 29h33q-3 -8 -9.5 -21.5t-29 -53.5t-47.5 -76t-64.5 -79.5t-81.5 -75.5t-98 -53.5t-113 -21.5 q-137 0 -190 120q-49 111 -8 269zM217 367q69 -24 140 83q58 88 76 188q13 83 -21 85q-52 0 -111.5 -113t-83.5 -243zM334 971l352 198v-137l-344 -90z" />
<glyph unicode="&#xea;" horiz-adv-x="567" d="M23 399q44 165 160 272q119 109 272 109q101 0 127 -87q25 -83 -29 -190q-56 -114 -161 -170q-86 -46 -183 -34q-14 -184 88 -184q51 0 104 28.5t92.5 69t72 81t48.5 68.5l17 29h33q-3 -8 -9.5 -21.5t-29 -53.5t-47.5 -76t-64.5 -79.5t-81.5 -75.5t-98 -53.5t-113 -21.5 q-137 0 -190 120q-49 111 -8 269zM217 367q69 -24 140 83q58 88 76 188q13 83 -21 85q-52 0 -111.5 -113t-83.5 -243zM252 930l270 209h49l111 -217l-39 -27l-166 115l-205 -105z" />
<glyph unicode="&#xeb;" horiz-adv-x="567" d="M23 399q44 165 160 272q119 109 272 109q101 0 127 -87q25 -83 -29 -190q-56 -114 -161 -170q-86 -46 -183 -34q-14 -184 88 -184q51 0 104 28.5t92.5 69t72 81t48.5 68.5l17 29h33q-3 -8 -9.5 -21.5t-29 -53.5t-47.5 -76t-64.5 -79.5t-81.5 -75.5t-98 -53.5t-113 -21.5 q-137 0 -190 120q-49 111 -8 269zM217 367q69 -24 140 83q58 88 76 188q13 83 -21 85q-52 0 -111.5 -113t-83.5 -243zM256 1038q0 46 30 75.5t76 29.5q42 0 73.5 -30t31.5 -75q0 -42 -31.5 -74t-73.5 -32q-45 0 -75.5 31.5t-30.5 74.5zM498 1038q0 46 30 75.5t76 29.5 q42 0 73.5 -30t31.5 -75q0 -42 -31.5 -74t-73.5 -32q-45 0 -75.5 31.5t-30.5 74.5z" />
<glyph unicode="&#xec;" horiz-adv-x="313" d="M-14.5 160.5q4.5 48.5 24.5 111.5l158 508h184q-122 -399 -155 -508q-16 -49 -17.5 -77t5 -36t20.5 -12q21 -7 56 17.5t58 73.5h29q-47 -118 -119 -175t-139 -57q-23 0 -42 6.5t-35.5 24.5t-24 46.5t-3 77zM125 1055v137l352 -199l-8 -28z" />
<glyph unicode="&#xed;" horiz-adv-x="313" d="M-14.5 160.5q4.5 48.5 24.5 111.5l158 508h184q-122 -399 -155 -508q-16 -49 -17.5 -77t5 -36t20.5 -12q21 -7 56 17.5t58 73.5h29q-47 -118 -119 -175t-139 -57q-23 0 -42 6.5t-35.5 24.5t-24 46.5t-3 77zM166 993l352 199v-137l-344 -90z" />
<glyph unicode="&#xee;" horiz-adv-x="313" d="M-14.5 160.5q4.5 48.5 24.5 111.5l158 508h184q-122 -399 -155 -508q-16 -49 -17.5 -77t5 -36t20.5 -12q21 -7 56 17.5t58 73.5h29q-47 -118 -119 -175t-139 -57q-23 0 -42 6.5t-35.5 24.5t-24 46.5t-3 77zM104 979l271 209h49l111 -217l-39 -27l-166 115l-205 -105z" />
<glyph unicode="&#xef;" horiz-adv-x="313" d="M-14.5 160.5q4.5 48.5 24.5 111.5l158 508h184q-122 -399 -155 -508q-16 -49 -17.5 -77t5 -36t20.5 -12q21 -7 56 17.5t58 73.5h29q-47 -118 -119 -175t-139 -57q-23 0 -42 6.5t-35.5 24.5t-24 46.5t-3 77zM90 1053q0 45 30.5 74.5t76.5 29.5q42 0 73 -29.5t31 -74.5 q0 -43 -31.5 -75t-72.5 -32q-45 0 -76 32t-31 75zM332 1053q0 46 30 75t76 29q42 0 73.5 -29.5t31.5 -74.5q0 -43 -32 -75t-73 -32q-45 0 -75.5 31.5t-30.5 75.5z" />
<glyph unicode="&#xf0;" horiz-adv-x="675" d="M4 149q-24 125 62 290q81 158 210 254q109 81 216 83q6 86 6 172l-78 -63l-51 51l125 100q-9 116 -39 207l41 29q58 -56 106 -146l103 84l51 -51l-123 -100q35 -92 49 -200t5 -214.5t-35 -210t-73 -189t-106.5 -148t-138 -90.5t-164.5 -13q-141 25 -166 155zM164.5 96.5 q3.5 -35.5 25.5 -43.5q57 -20 118.5 71t107.5 249t67 336q-33 -17 -71.5 -60t-74 -99.5t-69 -121t-57.5 -127.5t-37 -116t-9.5 -88.5z" />
<glyph unicode="&#xf1;" horiz-adv-x="575" d="M-70 0l234 780h186l-39 -129q90 129 187 129q117 0 81 -171q-15 -68 -85 -254q-56 -150 -49 -186q4 -22 24 -22q24 0 57.5 22.5t55.5 68.5h28q-45 -116 -118.5 -174t-137.5 -58q-136 0 -87 213q17 70 86 259q48 132 37 153q-3 6 -11 6q-50 0 -133 -207l-129 -430h-187z M205 1006q39 74 97.5 122.5t122 53.5t116.5 -58q25 -30 52.5 -39.5t49 -2t40 19.5t28.5 24l10 11l35 -29q-64 -75 -124.5 -116t-120.5 -40.5t-103 54.5q-25 32 -52 40t-47 -3t-36.5 -26t-25.5 -29l-9 -15z" />
<glyph unicode="&#xf2;" horiz-adv-x="595" d="M35 395q46 161 158.5 273t226.5 112q61 0 102 -19.5t61.5 -53.5t25 -84t-3.5 -105t-27 -123q-51 -160 -163 -272.5t-222 -112.5q-268 0 -158 385zM200 224q-14 -128 25 -128q44 0 104 145q66 157 86 305q17 134 -28 134q-51 0 -111 -153.5t-76 -302.5zM260 1010v137 l352 -199l-8 -28z" />
<glyph unicode="&#xf3;" horiz-adv-x="595" d="M35 395q46 161 158.5 273t226.5 112q61 0 102 -19.5t61.5 -53.5t25 -84t-3.5 -105t-27 -123q-51 -160 -163 -272.5t-222 -112.5q-268 0 -158 385zM200 224q-14 -128 25 -128q44 0 104 145q66 157 86 305q17 134 -28 134q-51 0 -111 -153.5t-76 -302.5zM332 956l352 199 v-137l-344 -90z" />
<glyph unicode="&#xf4;" horiz-adv-x="595" d="M35 395q46 161 158.5 273t226.5 112q61 0 102 -19.5t61.5 -53.5t25 -84t-3.5 -105t-27 -123q-51 -160 -163 -272.5t-222 -112.5q-268 0 -158 385zM200 224q-14 -128 25 -128q44 0 104 145q66 157 86 305q17 134 -28 134q-51 0 -111 -153.5t-76 -302.5zM262 956l270 209 h50l110 -217l-39 -26l-166 114l-204 -104z" />
<glyph unicode="&#xf5;" horiz-adv-x="595" d="M35 395q46 161 158.5 273t226.5 112q61 0 102 -19.5t61.5 -53.5t25 -84t-3.5 -105t-27 -123q-51 -160 -163 -272.5t-222 -112.5q-268 0 -158 385zM200 224q-14 -128 25 -128q44 0 104 145q66 157 86 305q17 134 -28 134q-51 0 -111 -153.5t-76 -302.5zM211 991 q39 74 97.5 122.5t122 54t116.5 -57.5q25 -30 52.5 -39.5t49 -2t40 19t28.5 22.5l10 12l35 -28q-64 -75 -124.5 -116.5t-120.5 -41t-103 54.5q-25 32 -52 40t-47 -3t-36.5 -26t-25.5 -30l-9 -14z" />
<glyph unicode="&#xf6;" horiz-adv-x="595" d="M35 395q46 161 158.5 273t226.5 112q61 0 102 -19.5t61.5 -53.5t25 -84t-3.5 -105t-27 -123q-51 -160 -163 -272.5t-222 -112.5q-268 0 -158 385zM200 224q-14 -128 25 -128q44 0 104 145q66 157 86 305q17 134 -28 134q-51 0 -111 -153.5t-76 -302.5zM268 1024 q0 45 30.5 74.5t76.5 29.5q42 0 73 -29.5t31 -74.5q0 -43 -31.5 -74.5t-72.5 -31.5q-45 0 -76 31.5t-31 74.5zM510 1024q0 46 30 75t76 29q42 0 73.5 -29.5t31.5 -74.5q0 -42 -31.5 -74t-73.5 -32q-45 0 -75.5 31.5t-30.5 74.5z" />
<glyph unicode="&#xf7;" horiz-adv-x="626" d="M92 326v71h418v-71h-418zM135 96q0 43 27.5 71t68.5 28q40 0 69.5 -28.5t29.5 -70.5q0 -38 -29.5 -67t-69.5 -29q-41 0 -68.5 28.5t-27.5 67.5zM279 602q0 43 27.5 70.5t68.5 27.5q40 0 69 -28t29 -70q0 -38 -29 -67t-69 -29q-41 0 -68.5 28.5t-27.5 67.5z" />
<glyph unicode="&#xf8;" horiz-adv-x="595" d="M-41 0l68 86q-53 98 8 309q46 161 158.5 273t226.5 112q75 0 125 -32l20 26h101l-72 -90q39 -97 -16 -289q-51 -160 -163 -272.5t-222 -112.5q-67 0 -107 21l-25 -31h-102zM197 172q0 -76 28 -76q36 0 83.5 98.5t80.5 225.5zM217 330l201 256q7 94 -31 94 q-43 0 -92 -108.5t-78 -241.5z" />
<glyph unicode="&#xf9;" horiz-adv-x="575" d="M-13.5 160.5q4.5 48.5 23.5 111.5l154 508h184q-118 -399 -151 -508q-15 -48 -18 -78t1.5 -38.5t12.5 -8.5q12 0 36 35t39 76l4 14l158 508h184q-122 -399 -155 -508q-16 -49 -17.5 -77t5 -36t20.5 -12q21 -7 56.5 18t58.5 73h32q-50 -118 -122.5 -175t-137.5 -57 q-47 0 -77 29.5t-29 99.5q-69 -129 -156 -129q-24 0 -43 6.5t-35.5 24.5t-24 46.5t-3 77zM231 1016v137l353 -199l-9 -28z" />
<glyph unicode="&#xfa;" horiz-adv-x="575" d="M-13.5 160.5q4.5 48.5 23.5 111.5l154 508h184q-118 -399 -151 -508q-15 -48 -18 -78t1.5 -38.5t12.5 -8.5q12 0 36 35t39 76l4 14l158 508h184q-122 -399 -155 -508q-16 -49 -17.5 -77t5 -36t20.5 -12q21 -7 56.5 18t58.5 73h32q-50 -118 -122.5 -175t-137.5 -57 q-47 0 -77 29.5t-29 99.5q-69 -129 -156 -129q-24 0 -43 6.5t-35.5 24.5t-24 46.5t-3 77zM258 956l352 199v-137l-344 -90z" />
<glyph unicode="&#xfb;" horiz-adv-x="575" d="M-13.5 160.5q4.5 48.5 23.5 111.5l154 508h184q-118 -399 -151 -508q-15 -48 -18 -78t1.5 -38.5t12.5 -8.5q12 0 36 35t39 76l4 14l158 508h184q-122 -399 -155 -508q-16 -49 -17.5 -77t5 -36t20.5 -12q21 -7 56.5 18t58.5 73h32q-50 -118 -122.5 -175t-137.5 -57 q-47 0 -77 29.5t-29 99.5q-69 -129 -156 -129q-24 0 -43 6.5t-35.5 24.5t-24 46.5t-3 77zM193 938l270 209h49l111 -217l-39 -27l-166 115l-205 -105z" />
<glyph unicode="&#xfc;" horiz-adv-x="575" d="M-13.5 160.5q4.5 48.5 23.5 111.5l154 508h184q-118 -399 -151 -508q-15 -48 -18 -78t1.5 -38.5t12.5 -8.5q12 0 36 35t39 76l4 14l158 508h184q-122 -399 -155 -508q-16 -49 -17.5 -77t5 -36t20.5 -12q21 -7 56.5 18t58.5 73h32q-50 -118 -122.5 -175t-137.5 -57 q-47 0 -77 29.5t-29 99.5q-69 -129 -156 -129q-24 0 -43 6.5t-35.5 24.5t-24 46.5t-3 77zM231 1034q0 46 30.5 75.5t76.5 29.5q42 0 73 -30t31 -75q0 -43 -31.5 -74.5t-72.5 -31.5q-45 0 -76 31.5t-31 74.5zM473 1034q0 46 30.5 75.5t76.5 29.5q42 0 73 -30t31 -75 q0 -43 -31.5 -74.5t-72.5 -31.5q-45 0 -76 31.5t-31 74.5z" />
<glyph unicode="&#xfd;" horiz-adv-x="534" d="M-160 -137q28 80 105 100q67 17 118 -20q56 -40 36 -108q-3 -9 -7 -19q-59 40 -97 0q-29 -30 -22 -72q16 -42 56 -47q19 0 36.5 11.5t33 37t27.5 49.5t25.5 66t21.5 69t22 76l20 70q-52 -70 -119 -70q-25 0 -45 6.5t-37 24.5t-24 46.5t-1.5 77t25.5 111.5l154 508h184 q-118 -399 -151 -508q-16 -50 -20 -78.5t0.5 -37.5t15.5 -9t32.5 31.5t36.5 69.5l158 532h186q-119 -418 -209 -708q-24 -78 -46 -135t-55.5 -116.5t-70.5 -96.5t-89 -60.5t-115 -23.5q-107 0 -162 67t-23 156zM221 993l352 199v-137l-344 -90z" />
<glyph unicode="&#xfe;" horiz-adv-x="577" d="M-176 -356l495 1607h185l-180 -583q84 112 174 112q119 0 81 -176q-15 -69 -84 -255q-55 -148 -48 -183q4 -19 22 -19q27 0 60 22t55 69h32q-45 -116 -118.5 -174t-137.5 -58q-139 0 -91 214q16 71 85 259q47 131 36 152q-3 6 -11 6q-44 0 -125 -197l-246 -796h-184z" />
<glyph unicode="&#xff;" horiz-adv-x="534" d="M-160 -137q28 80 105 100q67 17 118 -20q56 -40 36 -108q-3 -9 -7 -19q-59 40 -97 0q-29 -30 -22 -72q16 -42 56 -47q19 0 36.5 11.5t33 37t27.5 49.5t25.5 66t21.5 69t22 76l20 70q-52 -70 -119 -70q-25 0 -45 6.5t-37 24.5t-24 46.5t-1.5 77t25.5 111.5l154 508h184 q-118 -399 -151 -508q-16 -50 -20 -78.5t0.5 -37.5t15.5 -9t32.5 31.5t36.5 69.5l158 532h186q-119 -418 -209 -708q-24 -78 -46 -135t-55.5 -116.5t-70.5 -96.5t-89 -60.5t-115 -23.5q-107 0 -162 67t-23 156zM223 1053q0 45 30.5 74.5t76.5 29.5q42 0 73 -29.5t31 -74.5 q0 -43 -31.5 -75t-72.5 -32q-45 0 -76 32t-31 75zM465 1053q0 46 30 75t76 29q42 0 73.5 -29.5t31.5 -74.5q0 -43 -32 -75t-73 -32q-45 0 -75.5 31.5t-30.5 75.5z" />
<glyph unicode="&#x152;" horiz-adv-x="1589" d="M5.5 164q-11.5 102 9.5 229.5t73 263.5q87 236 217.5 423.5t297 301t337.5 113.5q140 0 219 -106q213 142 473 96q100 -16 167.5 -63.5t92.5 -106.5t16.5 -122t-48.5 -113.5t-116.5 -79t-172.5 -19.5q-45 4 -81 21.5t-55 39.5t-31.5 44t-15.5 36l-4 15q106 -32 189 25 q64 43 70 107q8 71 -65 111q-29 15 -69 23q-94 20 -179 -32t-127 -145t-48.5 -196t56.5 -197.5t186 -138.5l-4 -20q-262 0 -417 -161q-112 -118 -129 -275q-16 -142 53 -233q63 -85 175 -85q59 0 123 25.5t118 66t106 89.5t92 98.5t70.5 90t46.5 66.5l16 25h57 q-6 -12 -17.5 -32t-50 -77.5t-81 -110.5t-108.5 -117t-134 -110.5t-156 -78t-176 -31.5q-199 0 -303 139q-185 -139 -371 -139q-86 0 -151.5 42t-102 119t-48 179zM263.5 146.5q5.5 -100.5 45.5 -156.5t113 -56q104 0 205 119q-25 64 -29.5 137.5t9.5 145t49.5 139 t86.5 120.5t124 88t159 42q-78 40 -108.5 119.5t-13.5 173.5t75 184q-23 182 -154 182q-96 0 -189 -99.5t-165.5 -259t-130.5 -368.5q-43 -153 -62.5 -281.5t-14 -229z" />
<glyph unicode="&#x153;" horiz-adv-x="923" d="M35 395q46 161 158.5 273t226.5 112q117 0 164 -73q102 73 227 73q101 0 127 -87q25 -83 -29 -190q-56 -114 -161 -170q-86 -46 -183 -34q-14 -184 88 -184q51 0 104 28.5t92.5 69t72 81t48.5 68.5l17 29h33q-7 -15 -19.5 -41t-55.5 -91.5t-90.5 -116t-122.5 -91.5 t-154 -41q-122 0 -179 96q-107 -96 -206 -96q-268 0 -158 385zM200 224q-14 -128 25 -128q30 0 70 72.5t72 175.5q8 47 32 115q22 89 20.5 155t-32.5 66q-51 0 -111 -153.5t-76 -302.5zM573 367q69 -24 140 83q58 88 76 188q13 83 -21 85q-52 0 -111.5 -113t-83.5 -243z" />
<glyph unicode="&#x178;" horiz-adv-x="1439" d="M23 755q55 217 220 402q203 227 487 301q119 31 245 31q191 0 330 -119q-19 -4 -37 -6q-113 -29 -228 -215q-109 -176 -157 -380q-47 -201 5 -277q24 -35 68 -35q105 0 240 211q42 139 77 237t87.5 203.5t107.5 164.5t130.5 88.5t162.5 8.5q-34 -4 -64 -25t-57.5 -68 t-47.5 -89t-46.5 -124t-41.5 -133.5t-44 -154.5q-30 -106 -46 -161.5t-49 -159t-57 -162.5t-64 -146.5t-77 -139t-89 -112t-105.5 -93t-121 -54.5t-142.5 -22q-90 0 -162.5 43.5t-101.5 121t12 185.5q40 104 146 138q90 29 171 -8q76 -35 82 -106q5 -55 -37 -118 q-63 73 -136 44q-51 -20 -74 -76q-27 -66 12 -112q40 -47 137 -47q44 0 83 23.5t74 77t62 105.5t59 144.5t52 156.5t53 177q-130 -127 -271 -127q-170 0 -225 150q-52 139 9 348q61 206 195 357q138 157 298 179q-73 31 -172 31q-292 0 -501 -229q-152 -167 -215 -400 q-53 -194 -18 -322q32 -109 115 -110q43 0 64 40q23 42 -6 76q-31 36 -105 36q0 71 69.5 104.5t138.5 0.5t69 -124q0 -94 -79 -156.5t-183 -62.5q-201 0 -280 147q-73 136 -21 342zM1260 1565q0 46 30 75t76 29q42 0 73 -29.5t31 -74.5q0 -43 -31.5 -75t-72.5 -32 q-45 0 -75.5 31.5t-30.5 75.5zM1501 1565q0 45 30.5 74.5t76.5 29.5q42 0 73 -29.5t31 -74.5q0 -43 -31.5 -75t-72.5 -32q-45 0 -76 32t-31 75z" />
<glyph unicode="&#x2c6;" horiz-adv-x="559" d="M68 979l270 209h49l111 -217l-39 -27l-166 115l-205 -105z" />
<glyph unicode="&#x2dc;" horiz-adv-x="739" d="M98 1006q39 74 97.5 122.5t122 53.5t116.5 -58q25 -30 52.5 -39.5t49 -2t40 19.5t28.5 24l10 11l35 -29q-64 -75 -124.5 -116t-120.5 -40.5t-103 54.5q-25 32 -52 40t-47 -3t-36.5 -26t-25.5 -29l-9 -15z" />
<glyph unicode="&#x2000;" horiz-adv-x="915" />
<glyph unicode="&#x2001;" horiz-adv-x="1831" />
<glyph unicode="&#x2002;" horiz-adv-x="915" />
<glyph unicode="&#x2003;" horiz-adv-x="1831" />
<glyph unicode="&#x2004;" horiz-adv-x="610" />
<glyph unicode="&#x2005;" horiz-adv-x="457" />
<glyph unicode="&#x2006;" horiz-adv-x="305" />
<glyph unicode="&#x2007;" horiz-adv-x="305" />
<glyph unicode="&#x2008;" horiz-adv-x="228" />
<glyph unicode="&#x2009;" horiz-adv-x="366" />
<glyph unicode="&#x200a;" horiz-adv-x="101" />
<glyph unicode="&#x2010;" horiz-adv-x="444" d="M106 379v72h275v-72h-275z" />
<glyph unicode="&#x2011;" horiz-adv-x="444" d="M106 379v72h275v-72h-275z" />
<glyph unicode="&#x2012;" horiz-adv-x="444" d="M106 379v72h275v-72h-275z" />
<glyph unicode="&#x2013;" horiz-adv-x="731" d="M106 379v72h556v-72h-556z" />
<glyph unicode="&#x2014;" horiz-adv-x="1107" d="M106 379v72h936v-72h-936z" />
<glyph unicode="&#x2018;" horiz-adv-x="208" d="M104 776q3 35 27.5 61.5t77 68.5t92.5 89l33 -18l-58 -139q23 -26 23 -62q0 -43 -27.5 -70.5t-68.5 -27.5t-71.5 28.5t-27.5 69.5z" />
<glyph unicode="&#x2019;" horiz-adv-x="225" d="M121 696l57 140q-22 25 -22 61q0 43 27.5 70.5t68.5 27.5t71 -28.5t27 -69.5q-3 -35 -27 -61.5t-76.5 -68.5t-92.5 -89z" />
<glyph unicode="&#x201a;" horiz-adv-x="294" d="M-35 -104l58 139q-23 26 -23 61q0 43 27.5 71t68.5 28t71.5 -28.5t27.5 -70.5q-3 -35 -27.5 -61.5t-77 -68.5t-92.5 -89z" />
<glyph unicode="&#x201c;" horiz-adv-x="430" d="M104 776q3 35 27.5 61.5t77 68.5t92.5 89l33 -18l-58 -139q23 -26 23 -62q0 -43 -27.5 -70.5t-68.5 -27.5t-71.5 28.5t-27.5 69.5zM322 776q3 35 27 61.5t76.5 68.5t92.5 89l33 -18l-57 -139q22 -25 22 -62q0 -43 -27.5 -70.5t-68.5 -27.5t-71 28.5t-27 69.5z" />
<glyph unicode="&#x201d;" horiz-adv-x="430" d="M121 696l57 140q-22 25 -22 61q0 43 27.5 70.5t68.5 27.5t71 -28.5t27 -69.5q-3 -35 -27 -61.5t-76.5 -68.5t-92.5 -89zM338 696l57 140q-22 25 -22 61q0 43 27.5 70.5t68.5 27.5t71 -28.5t27 -69.5q-3 -35 -27 -61.5t-76.5 -68.5t-92.5 -89z" />
<glyph unicode="&#x201e;" horiz-adv-x="514" d="M-35 -104l58 139q-23 26 -23 61q0 43 27.5 71t68.5 28t71.5 -28.5t27.5 -70.5q-3 -35 -27.5 -61.5t-77 -68.5t-92.5 -89zM182 -104l58 139q-23 26 -23 61q0 43 27.5 71t68.5 28t71.5 -28.5t27.5 -70.5q-3 -35 -27.5 -61.5t-77 -68.5t-92.5 -89z" />
<glyph unicode="&#x2022;" horiz-adv-x="641" d="M152 391q0 68 42.5 112t108.5 44q64 0 110 -45t46 -111q0 -61 -46.5 -106t-109.5 -45q-65 0 -108 44t-43 107z" />
<glyph unicode="&#x2026;" horiz-adv-x="854" d="M0 96q0 43 27.5 71t68.5 28q40 0 69.5 -28.5t29.5 -70.5q0 -38 -29.5 -67t-69.5 -29q-41 0 -68.5 28.5t-27.5 67.5zM285 96q0 43 27.5 71t68.5 28q40 0 69 -28.5t29 -70.5q0 -38 -29 -67t-69 -29q-41 0 -68.5 28.5t-27.5 67.5zM569 96q0 43 28 71t69 28q40 0 69 -28.5 t29 -70.5q0 -38 -29 -67t-69 -29q-41 0 -69 28.5t-28 67.5z" />
<glyph unicode="&#x202f;" horiz-adv-x="366" />
<glyph unicode="&#x2039;" horiz-adv-x="651" d="M145 379l13 47l379 203l14 -45l-266 -228l116 -233l-28 -12z" />
<glyph unicode="&#x203a;" horiz-adv-x="651" d="M127 158l266 227l-117 233l29 13l227 -269l-12 -47l-379 -202z" />
<glyph unicode="&#x205f;" horiz-adv-x="457" />
<glyph unicode="&#x20ac;" horiz-adv-x="899" d="M92 518v72h49q13 41 33 92h-20v72h51q55 117 128 220.5t160 186t189.5 130.5t204.5 48q144 0 205 -94q49 -75 21 -167q-28 -91 -115 -133q-66 -31 -150 -23q-36 3 -64 17.5t-43 32.5t-25 35.5t-13 29.5l-3 12q88 -27 161 28q54 41 58 93q4 56 -58 73q-23 6 -52 6 q-89 0 -174 -71t-147.5 -179.5t-108.5 -244.5h196v-72h-219q-1 -4 -24 -92h182v-72h-197q-19 -127 -15 -229.5t42.5 -167t106.5 -64.5q65 0 136 38.5t127 93.5t102.5 110.5t71.5 94.5l25 38h43q-5 -9 -14 -25.5t-40.5 -63.5t-65.5 -89.5t-87.5 -95t-108.5 -90t-126.5 -63 t-142.5 -25.5q-97 0 -161 43.5t-91 118.5t-26.5 170.5t28.5 205.5h-29z" />
<glyph unicode="&#x2122;" horiz-adv-x="1611" d="M126 747q-39 108 23.5 245.5t194.5 213.5q71 40 157 47.5t152 -5t149 -29t130 -17.5q97 51 213 51q130 0 201 -59l-105 -504q14 36 43 111q45 119 72 180.5t76 142.5t107 109t128 10q-143 -501 -168 -577q-12 -37 -15.5 -63.5t0.5 -38.5t13 -13q19 -3 38 20.5t40 67.5h20 q-59 -150 -155 -150q-21 0 -37 8.5t-28 28t-11 59.5t18 95l142 483q-45 -54 -90 -150t-80 -187.5t-73 -178t-86 -139.5t-103 -53l122 647q-39 -56 -73.5 -152t-60 -186t-54.5 -174t-69 -135.5t-91 -51.5q-62 0 -98 33.5t-16 102.5q14 49 69 59q50 9 78 -19q29 -28 -2 -73 q-30 25 -54 -1q-19 -21 -8 -43q9 -18 39 -18q33 0 62.5 52t51 130.5t50 172.5t57.5 177t76.5 144.5t104.5 73.5q-44 20 -131 20q-170 0 -267 -148q-71 -107 -74 -238q-3 -107 42 -143q15 -13 35 -13q27 0 37 26q11 29 -17 44q-16 8 -41 8q0 36 35 53t70.5 0.5t35.5 -62.5 q0 -49 -40.5 -80.5t-94.5 -31.5q-67 0 -111.5 33t-59 86.5t-7.5 117.5t40.5 131t86.5 121q-46 5 -63 8q-32 -13 -60.5 -60t-51 -111.5t-46 -139.5t-52 -147.5t-63 -132t-85 -96t-111.5 -36.5q-62 0 -98.5 33.5t-16.5 102.5q14 49 70 59q50 8 77 -19q28 -29 -4 -73 q-28 23 -50 1q-20 -21 -10 -43q9 -20 40 -20q29 0 55 36.5t47.5 95.5t43 130.5t47.5 144t56 134.5t73 103.5t94 48.5q-17 4 -64 16t-68 16.5t-61 10t-64.5 3.5t-54.5 -11t-55 -27q-51 -37 -82.5 -97.5t-38 -122t0.5 -117t31.5 -91t57.5 -35.5q27 0 36 26q10 28 -19 43 q-15 9 -41 9q0 37 35.5 54t70.5 0t35 -64q0 -46 -40.5 -78.5t-92.5 -32.5q-128 0 -167 108z" />
<glyph unicode="&#x25fc;" horiz-adv-x="778" d="M0 0v778h778v-778h-778z" />
</font>
</defs>
</svg>
